%TF.GenerationSoftware,KiCad,Pcbnew,9.0.5*%
%TF.CreationDate,2025-11-29T21:51:22-08:00*%
%TF.ProjectId,TinyGawant,54696e79-4761-4776-916e-742e6b696361,rev?*%
%TF.SameCoordinates,Original*%
%TF.FileFunction,Soldermask,Top*%
%TF.FilePolarity,Negative*%
%FSLAX46Y46*%
G04 Gerber Fmt 4.6, Leading zero omitted, Abs format (unit mm)*
G04 Created by KiCad (PCBNEW 9.0.5) date 2025-11-29 21:51:22*
%MOMM*%
%LPD*%
G01*
G04 APERTURE LIST*
G04 Aperture macros list*
%AMRoundRect*
0 Rectangle with rounded corners*
0 $1 Rounding radius*
0 $2 $3 $4 $5 $6 $7 $8 $9 X,Y pos of 4 corners*
0 Add a 4 corners polygon primitive as box body*
4,1,4,$2,$3,$4,$5,$6,$7,$8,$9,$2,$3,0*
0 Add four circle primitives for the rounded corners*
1,1,$1+$1,$2,$3*
1,1,$1+$1,$4,$5*
1,1,$1+$1,$6,$7*
1,1,$1+$1,$8,$9*
0 Add four rect primitives between the rounded corners*
20,1,$1+$1,$2,$3,$4,$5,0*
20,1,$1+$1,$4,$5,$6,$7,0*
20,1,$1+$1,$6,$7,$8,$9,0*
20,1,$1+$1,$8,$9,$2,$3,0*%
%AMFreePoly0*
4,1,23,0.500000,-0.750000,0.000000,-0.750000,0.000000,-0.745722,-0.065263,-0.745722,-0.191342,-0.711940,-0.304381,-0.646677,-0.396677,-0.554381,-0.461940,-0.441342,-0.495722,-0.315263,-0.495722,-0.250000,-0.500000,-0.250000,-0.500000,0.250000,-0.495722,0.250000,-0.495722,0.315263,-0.461940,0.441342,-0.396677,0.554381,-0.304381,0.646677,-0.191342,0.711940,-0.065263,0.745722,0.000000,0.745722,
0.000000,0.750000,0.500000,0.750000,0.500000,-0.750000,0.500000,-0.750000,$1*%
%AMFreePoly1*
4,1,23,0.000000,0.745722,0.065263,0.745722,0.191342,0.711940,0.304381,0.646677,0.396677,0.554381,0.461940,0.441342,0.495722,0.315263,0.495722,0.250000,0.500000,0.250000,0.500000,-0.250000,0.495722,-0.250000,0.495722,-0.315263,0.461940,-0.441342,0.396677,-0.554381,0.304381,-0.646677,0.191342,-0.711940,0.065263,-0.745722,0.000000,-0.745722,0.000000,-0.750000,-0.500000,-0.750000,
-0.500000,0.750000,0.000000,0.750000,0.000000,0.745722,0.000000,0.745722,$1*%
G04 Aperture macros list end*
%ADD10C,3.129000*%
%ADD11RoundRect,0.250000X-1.425000X0.362500X-1.425000X-0.362500X1.425000X-0.362500X1.425000X0.362500X0*%
%ADD12RoundRect,0.500000X-2.250000X-0.500000X2.250000X-0.500000X2.250000X0.500000X-2.250000X0.500000X0*%
%ADD13RoundRect,0.250000X0.475000X-0.250000X0.475000X0.250000X-0.475000X0.250000X-0.475000X-0.250000X0*%
%ADD14C,3.000000*%
%ADD15C,0.900000*%
%ADD16RoundRect,0.250000X0.375000X1.000000X-0.375000X1.000000X-0.375000X-1.000000X0.375000X-1.000000X0*%
%ADD17C,3.400000*%
%ADD18C,7.000000*%
%ADD19O,4.200000X2.500000*%
%ADD20RoundRect,0.102000X-0.704000X-0.704000X0.704000X-0.704000X0.704000X0.704000X-0.704000X0.704000X0*%
%ADD21RoundRect,0.250000X-0.450000X0.262500X-0.450000X-0.262500X0.450000X-0.262500X0.450000X0.262500X0*%
%ADD22C,1.750000*%
%ADD23RoundRect,0.250000X-0.350000X0.250000X-0.350000X-0.250000X0.350000X-0.250000X0.350000X0.250000X0*%
%ADD24RoundRect,0.250000X0.362500X1.425000X-0.362500X1.425000X-0.362500X-1.425000X0.362500X-1.425000X0*%
%ADD25RoundRect,0.250000X1.425000X-0.362500X1.425000X0.362500X-1.425000X0.362500X-1.425000X-0.362500X0*%
%ADD26RoundRect,0.225000X-0.375000X0.225000X-0.375000X-0.225000X0.375000X-0.225000X0.375000X0.225000X0*%
%ADD27RoundRect,0.250000X-0.400000X-0.600000X0.400000X-0.600000X0.400000X0.600000X-0.400000X0.600000X0*%
%ADD28FreePoly0,270.000000*%
%ADD29FreePoly1,270.000000*%
G04 APERTURE END LIST*
%TO.C,JP1*%
G36*
X114161000Y-119738000D02*
G01*
X112661000Y-119738000D01*
X112661000Y-120038000D01*
X114161000Y-120038000D01*
X114161000Y-119738000D01*
G37*
%TD*%
D10*
%TO.C,J3*%
X128083000Y-119086000D03*
X120583000Y-119086000D03*
X128083000Y-114086000D03*
X120583000Y-114086000D03*
%TD*%
D11*
%TO.C,R1*%
X117602000Y-129498500D03*
X117602000Y-135423500D03*
%TD*%
D12*
%TO.C,J1*%
X113411000Y-124460000D03*
%TD*%
D13*
%TO.C,C3*%
X125840000Y-125010000D03*
X125840000Y-123110000D03*
%TD*%
D14*
%TO.C,T1*%
X132640000Y-136085000D03*
X142640000Y-136085000D03*
X137640000Y-118585000D03*
X143690000Y-120885000D03*
X132640000Y-120085000D03*
%TD*%
D15*
%TO.C,SW2*%
X142790000Y-112310000D03*
X135990000Y-112310000D03*
D16*
X141890000Y-115060000D03*
X139390000Y-115060000D03*
X136890000Y-115060000D03*
%TD*%
D17*
%TO.C,C1*%
X163540000Y-124460000D03*
D18*
X156540000Y-124460000D03*
D17*
X149540000Y-124460000D03*
D19*
X163540000Y-135960000D03*
X156540000Y-135960000D03*
X149540000Y-135960000D03*
X163540000Y-112960000D03*
X156540000Y-112960000D03*
X149540000Y-112960000D03*
%TD*%
D20*
%TO.C,SW1*%
X122468000Y-137159000D03*
X124968000Y-137159000D03*
X127468000Y-137159000D03*
X122468000Y-133859000D03*
X124968000Y-133859000D03*
X127468000Y-133859000D03*
%TD*%
D21*
%TO.C,R3*%
X121590000Y-123147500D03*
X121590000Y-124972500D03*
%TD*%
D22*
%TO.C,D2*%
X128140000Y-124960000D03*
D23*
X128140000Y-123260000D03*
X128140000Y-126660000D03*
%TD*%
D24*
%TO.C,R4*%
X127803500Y-130556000D03*
X121878500Y-130556000D03*
%TD*%
D25*
%TO.C,R2*%
X113538000Y-135423500D03*
X113538000Y-129498500D03*
%TD*%
D26*
%TO.C,D1*%
X119340000Y-123860000D03*
X119340000Y-127160000D03*
%TD*%
D27*
%TO.C,D3*%
X121940000Y-126960000D03*
X125440000Y-126960000D03*
%TD*%
D13*
%TO.C,C2*%
X123690000Y-125010000D03*
X123690000Y-123110000D03*
%TD*%
D28*
%TO.C,JP1*%
X113411000Y-119238000D03*
D29*
X113411000Y-120538000D03*
%TD*%
D10*
%TO.C,J2*%
X169140000Y-128210000D03*
X169140000Y-120710000D03*
X174140000Y-128210000D03*
X174140000Y-120710000D03*
%TD*%
M02*
