%TF.GenerationSoftware,KiCad,Pcbnew,9.0.5*%
%TF.CreationDate,2025-11-29T21:51:22-08:00*%
%TF.ProjectId,TinyGawant,54696e79-4761-4776-916e-742e6b696361,rev?*%
%TF.SameCoordinates,Original*%
%TF.FileFunction,Copper,L2,Bot*%
%TF.FilePolarity,Positive*%
%FSLAX46Y46*%
G04 Gerber Fmt 4.6, Leading zero omitted, Abs format (unit mm)*
G04 Created by KiCad (PCBNEW 9.0.5) date 2025-11-29 21:51:22*
%MOMM*%
%LPD*%
G01*
G04 APERTURE LIST*
G04 Aperture macros list*
%AMRoundRect*
0 Rectangle with rounded corners*
0 $1 Rounding radius*
0 $2 $3 $4 $5 $6 $7 $8 $9 X,Y pos of 4 corners*
0 Add a 4 corners polygon primitive as box body*
4,1,4,$2,$3,$4,$5,$6,$7,$8,$9,$2,$3,0*
0 Add four circle primitives for the rounded corners*
1,1,$1+$1,$2,$3*
1,1,$1+$1,$4,$5*
1,1,$1+$1,$6,$7*
1,1,$1+$1,$8,$9*
0 Add four rect primitives between the rounded corners*
20,1,$1+$1,$2,$3,$4,$5,0*
20,1,$1+$1,$4,$5,$6,$7,0*
20,1,$1+$1,$6,$7,$8,$9,0*
20,1,$1+$1,$8,$9,$2,$3,0*%
G04 Aperture macros list end*
%TA.AperFunction,ComponentPad*%
%ADD10C,2.925000*%
%TD*%
%TA.AperFunction,SMDPad,CuDef*%
%ADD11RoundRect,0.500000X-2.250000X-0.500000X2.250000X-0.500000X2.250000X0.500000X-2.250000X0.500000X0*%
%TD*%
%TA.AperFunction,ComponentPad*%
%ADD12C,3.000000*%
%TD*%
%TA.AperFunction,ComponentPad*%
%ADD13O,4.200000X2.500000*%
%TD*%
%TA.AperFunction,ComponentPad*%
%ADD14R,1.408000X1.408000*%
%TD*%
%TA.AperFunction,ViaPad*%
%ADD15C,1.000000*%
%TD*%
%TA.AperFunction,ViaPad*%
%ADD16C,0.609600*%
%TD*%
%TA.AperFunction,Conductor*%
%ADD17C,0.762000*%
%TD*%
%TA.AperFunction,Conductor*%
%ADD18C,0.889000*%
%TD*%
%TA.AperFunction,Conductor*%
%ADD19C,1.524000*%
%TD*%
%TA.AperFunction,Conductor*%
%ADD20C,1.000000*%
%TD*%
%TA.AperFunction,Conductor*%
%ADD21C,0.508000*%
%TD*%
G04 APERTURE END LIST*
D10*
%TO.P,J3,1,1*%
%TO.N,RFGND*%
X128083000Y-119086000D03*
%TO.P,J3,2,1__1*%
X120583000Y-119086000D03*
%TO.P,J3,3,1__2*%
X128083000Y-114086000D03*
%TO.P,J3,4,1__3*%
X120583000Y-114086000D03*
%TD*%
D11*
%TO.P,J1,2,Ext*%
%TO.N,GND*%
X113411000Y-121285000D03*
X113411000Y-127635000D03*
%TD*%
D12*
%TO.P,T1,1,AA*%
%TO.N,GND*%
X132640000Y-136085000D03*
%TO.P,T1,2,AB*%
%TO.N,Net-(SW1B-B)*%
X142640000Y-136085000D03*
%TO.P,T1,3,SA*%
%TO.N,Net-(SW2-C)*%
X137640000Y-118585000D03*
%TO.P,T1,4,SC*%
%TO.N,Net-(SW2-A)*%
X143690000Y-120885000D03*
%TO.P,T1,5,SB*%
%TO.N,RFGND*%
X132640000Y-120085000D03*
%TD*%
D13*
%TO.P,C1,1*%
%TO.N,unconnected-(C1-Pad1)*%
X163540000Y-135960000D03*
%TO.P,C1,2*%
%TO.N,RFGND*%
X156540000Y-135960000D03*
%TO.P,C1,3*%
%TO.N,unconnected-(C1-Pad3)*%
X149540000Y-135960000D03*
%TO.P,C1,4*%
%TO.N,Net-(J2-1__1)*%
X163540000Y-112960000D03*
%TO.P,C1,5*%
%TO.N,RFGND*%
X156540000Y-112960000D03*
%TO.P,C1,6*%
%TO.N,unconnected-(C1-Pad6)*%
X149540000Y-112960000D03*
%TD*%
D14*
%TO.P,SW1,1,A*%
%TO.N,Net-(SW1A-A)*%
X122468000Y-137159000D03*
%TO.P,SW1,2,B*%
%TO.N,Net-(J1-In)*%
X124968000Y-137159000D03*
%TO.P,SW1,3,C*%
%TO.N,Net-(SW1A-C)*%
X127468000Y-137159000D03*
%TO.P,SW1,4,A*%
%TO.N,Net-(SW1B-A)*%
X122468000Y-133859000D03*
%TO.P,SW1,5,B*%
%TO.N,Net-(SW1B-B)*%
X124968000Y-133859000D03*
%TO.P,SW1,6,C*%
%TO.N,Net-(SW1A-C)*%
X127468000Y-133859000D03*
%TD*%
D10*
%TO.P,J2,1,1*%
%TO.N,Net-(J2-1__1)*%
X169140000Y-128210000D03*
%TO.P,J2,2,1__1*%
X169140000Y-120710000D03*
%TO.P,J2,3,1__2*%
X174140000Y-128210000D03*
%TO.P,J2,4,1__3*%
X174140000Y-120710000D03*
%TD*%
D15*
%TO.N,GND*%
X116967000Y-121285000D03*
X116967000Y-127635000D03*
X129667000Y-122555000D03*
%TO.N,Net-(J1-In)*%
X116990000Y-124460000D03*
%TO.N,Net-(J2-1__1)*%
X140843000Y-118010000D03*
D16*
%TO.N,Net-(D1-A)*%
X117602000Y-133985000D03*
X118491000Y-128016000D03*
%TD*%
D17*
%TO.N,GND*%
X113411000Y-127635000D02*
X116967000Y-127635000D01*
D18*
X116967000Y-121285000D02*
X113411000Y-121285000D01*
X118872000Y-122555000D02*
X117602000Y-121285000D01*
X117602000Y-121285000D02*
X116967000Y-121285000D01*
D19*
X113411000Y-127635000D02*
X113411000Y-121285000D01*
D18*
X129667000Y-122555000D02*
X118872000Y-122555000D01*
D17*
%TO.N,Net-(J1-In)*%
X124968000Y-136144000D02*
X124460000Y-135636000D01*
X121285000Y-135636000D02*
X120142000Y-134493000D01*
X119126000Y-124460000D02*
X116990000Y-124460000D01*
X124460000Y-135636000D02*
X121285000Y-135636000D01*
X120142000Y-134493000D02*
X120142000Y-125476000D01*
X120142000Y-125476000D02*
X119126000Y-124460000D01*
X124968000Y-137159000D02*
X124968000Y-136144000D01*
D20*
%TO.N,Net-(J2-1__1)*%
X160640000Y-118010000D02*
X163540000Y-115110000D01*
X163540000Y-115110000D02*
X163540000Y-112960000D01*
X140843000Y-118010000D02*
X160640000Y-118010000D01*
D21*
%TO.N,Net-(D1-A)*%
X118491000Y-133096000D02*
X117602000Y-133985000D01*
X118491000Y-128016000D02*
X118491000Y-133096000D01*
D20*
%TO.N,Net-(SW1B-B)*%
X124968000Y-132207000D02*
X124968000Y-133859000D01*
X126238000Y-130937000D02*
X124968000Y-132207000D01*
X137492000Y-130937000D02*
X126238000Y-130937000D01*
X142640000Y-136085000D02*
X137492000Y-130937000D01*
%TD*%
M02*
