%TF.GenerationSoftware,KiCad,Pcbnew,9.0.5*%
%TF.CreationDate,2025-11-29T21:51:22-08:00*%
%TF.ProjectId,TinyGawant,54696e79-4761-4776-916e-742e6b696361,rev?*%
%TF.SameCoordinates,Original*%
%TF.FileFunction,Legend,Top*%
%TF.FilePolarity,Positive*%
%FSLAX46Y46*%
G04 Gerber Fmt 4.6, Leading zero omitted, Abs format (unit mm)*
G04 Created by KiCad (PCBNEW 9.0.5) date 2025-11-29 21:51:22*
%MOMM*%
%LPD*%
G01*
G04 APERTURE LIST*
%ADD10C,0.150000*%
%ADD11C,0.127000*%
%ADD12C,0.120000*%
%ADD13C,0.000000*%
%ADD14C,0.100000*%
G04 APERTURE END LIST*
D10*
X130295666Y-111394819D02*
X130295666Y-112109104D01*
X130295666Y-112109104D02*
X130248047Y-112251961D01*
X130248047Y-112251961D02*
X130152809Y-112347200D01*
X130152809Y-112347200D02*
X130009952Y-112394819D01*
X130009952Y-112394819D02*
X129914714Y-112394819D01*
X130676619Y-111394819D02*
X131295666Y-111394819D01*
X131295666Y-111394819D02*
X130962333Y-111775771D01*
X130962333Y-111775771D02*
X131105190Y-111775771D01*
X131105190Y-111775771D02*
X131200428Y-111823390D01*
X131200428Y-111823390D02*
X131248047Y-111871009D01*
X131248047Y-111871009D02*
X131295666Y-111966247D01*
X131295666Y-111966247D02*
X131295666Y-112204342D01*
X131295666Y-112204342D02*
X131248047Y-112299580D01*
X131248047Y-112299580D02*
X131200428Y-112347200D01*
X131200428Y-112347200D02*
X131105190Y-112394819D01*
X131105190Y-112394819D02*
X130819476Y-112394819D01*
X130819476Y-112394819D02*
X130724238Y-112347200D01*
X130724238Y-112347200D02*
X130676619Y-112299580D01*
X117435333Y-137665819D02*
X117102000Y-137189628D01*
X116863905Y-137665819D02*
X116863905Y-136665819D01*
X116863905Y-136665819D02*
X117244857Y-136665819D01*
X117244857Y-136665819D02*
X117340095Y-136713438D01*
X117340095Y-136713438D02*
X117387714Y-136761057D01*
X117387714Y-136761057D02*
X117435333Y-136856295D01*
X117435333Y-136856295D02*
X117435333Y-136999152D01*
X117435333Y-136999152D02*
X117387714Y-137094390D01*
X117387714Y-137094390D02*
X117340095Y-137142009D01*
X117340095Y-137142009D02*
X117244857Y-137189628D01*
X117244857Y-137189628D02*
X116863905Y-137189628D01*
X118387714Y-137665819D02*
X117816286Y-137665819D01*
X118102000Y-137665819D02*
X118102000Y-136665819D01*
X118102000Y-136665819D02*
X118006762Y-136808676D01*
X118006762Y-136808676D02*
X117911524Y-136903914D01*
X117911524Y-136903914D02*
X117816286Y-136951533D01*
X116633666Y-122009819D02*
X116633666Y-122724104D01*
X116633666Y-122724104D02*
X116586047Y-122866961D01*
X116586047Y-122866961D02*
X116490809Y-122962200D01*
X116490809Y-122962200D02*
X116347952Y-123009819D01*
X116347952Y-123009819D02*
X116252714Y-123009819D01*
X117633666Y-123009819D02*
X117062238Y-123009819D01*
X117347952Y-123009819D02*
X117347952Y-122009819D01*
X117347952Y-122009819D02*
X117252714Y-122152676D01*
X117252714Y-122152676D02*
X117157476Y-122247914D01*
X117157476Y-122247914D02*
X117062238Y-122295533D01*
X126249580Y-121676666D02*
X126297200Y-121724285D01*
X126297200Y-121724285D02*
X126344819Y-121867142D01*
X126344819Y-121867142D02*
X126344819Y-121962380D01*
X126344819Y-121962380D02*
X126297200Y-122105237D01*
X126297200Y-122105237D02*
X126201961Y-122200475D01*
X126201961Y-122200475D02*
X126106723Y-122248094D01*
X126106723Y-122248094D02*
X125916247Y-122295713D01*
X125916247Y-122295713D02*
X125773390Y-122295713D01*
X125773390Y-122295713D02*
X125582914Y-122248094D01*
X125582914Y-122248094D02*
X125487676Y-122200475D01*
X125487676Y-122200475D02*
X125392438Y-122105237D01*
X125392438Y-122105237D02*
X125344819Y-121962380D01*
X125344819Y-121962380D02*
X125344819Y-121867142D01*
X125344819Y-121867142D02*
X125392438Y-121724285D01*
X125392438Y-121724285D02*
X125440057Y-121676666D01*
X125344819Y-121343332D02*
X125344819Y-120724285D01*
X125344819Y-120724285D02*
X125725771Y-121057618D01*
X125725771Y-121057618D02*
X125725771Y-120914761D01*
X125725771Y-120914761D02*
X125773390Y-120819523D01*
X125773390Y-120819523D02*
X125821009Y-120771904D01*
X125821009Y-120771904D02*
X125916247Y-120724285D01*
X125916247Y-120724285D02*
X126154342Y-120724285D01*
X126154342Y-120724285D02*
X126249580Y-120771904D01*
X126249580Y-120771904D02*
X126297200Y-120819523D01*
X126297200Y-120819523D02*
X126344819Y-120914761D01*
X126344819Y-120914761D02*
X126344819Y-121200475D01*
X126344819Y-121200475D02*
X126297200Y-121295713D01*
X126297200Y-121295713D02*
X126249580Y-121343332D01*
X136878095Y-127539819D02*
X137449523Y-127539819D01*
X137163809Y-128539819D02*
X137163809Y-127539819D01*
X138306666Y-128539819D02*
X137735238Y-128539819D01*
X138020952Y-128539819D02*
X138020952Y-127539819D01*
X138020952Y-127539819D02*
X137925714Y-127682676D01*
X137925714Y-127682676D02*
X137830476Y-127777914D01*
X137830476Y-127777914D02*
X137735238Y-127825533D01*
X132905667Y-115850200D02*
X133048524Y-115897819D01*
X133048524Y-115897819D02*
X133286619Y-115897819D01*
X133286619Y-115897819D02*
X133381857Y-115850200D01*
X133381857Y-115850200D02*
X133429476Y-115802580D01*
X133429476Y-115802580D02*
X133477095Y-115707342D01*
X133477095Y-115707342D02*
X133477095Y-115612104D01*
X133477095Y-115612104D02*
X133429476Y-115516866D01*
X133429476Y-115516866D02*
X133381857Y-115469247D01*
X133381857Y-115469247D02*
X133286619Y-115421628D01*
X133286619Y-115421628D02*
X133096143Y-115374009D01*
X133096143Y-115374009D02*
X133000905Y-115326390D01*
X133000905Y-115326390D02*
X132953286Y-115278771D01*
X132953286Y-115278771D02*
X132905667Y-115183533D01*
X132905667Y-115183533D02*
X132905667Y-115088295D01*
X132905667Y-115088295D02*
X132953286Y-114993057D01*
X132953286Y-114993057D02*
X133000905Y-114945438D01*
X133000905Y-114945438D02*
X133096143Y-114897819D01*
X133096143Y-114897819D02*
X133334238Y-114897819D01*
X133334238Y-114897819D02*
X133477095Y-114945438D01*
X133810429Y-114897819D02*
X134048524Y-115897819D01*
X134048524Y-115897819D02*
X134239000Y-115183533D01*
X134239000Y-115183533D02*
X134429476Y-115897819D01*
X134429476Y-115897819D02*
X134667572Y-114897819D01*
X135000905Y-114993057D02*
X135048524Y-114945438D01*
X135048524Y-114945438D02*
X135143762Y-114897819D01*
X135143762Y-114897819D02*
X135381857Y-114897819D01*
X135381857Y-114897819D02*
X135477095Y-114945438D01*
X135477095Y-114945438D02*
X135524714Y-114993057D01*
X135524714Y-114993057D02*
X135572333Y-115088295D01*
X135572333Y-115088295D02*
X135572333Y-115183533D01*
X135572333Y-115183533D02*
X135524714Y-115326390D01*
X135524714Y-115326390D02*
X134953286Y-115897819D01*
X134953286Y-115897819D02*
X135572333Y-115897819D01*
X156290000Y-131693057D02*
X156232857Y-131750200D01*
X156232857Y-131750200D02*
X156061429Y-131807342D01*
X156061429Y-131807342D02*
X155947143Y-131807342D01*
X155947143Y-131807342D02*
X155775714Y-131750200D01*
X155775714Y-131750200D02*
X155661429Y-131635914D01*
X155661429Y-131635914D02*
X155604286Y-131521628D01*
X155604286Y-131521628D02*
X155547143Y-131293057D01*
X155547143Y-131293057D02*
X155547143Y-131121628D01*
X155547143Y-131121628D02*
X155604286Y-130893057D01*
X155604286Y-130893057D02*
X155661429Y-130778771D01*
X155661429Y-130778771D02*
X155775714Y-130664485D01*
X155775714Y-130664485D02*
X155947143Y-130607342D01*
X155947143Y-130607342D02*
X156061429Y-130607342D01*
X156061429Y-130607342D02*
X156232857Y-130664485D01*
X156232857Y-130664485D02*
X156290000Y-130721628D01*
X157432857Y-131807342D02*
X156747143Y-131807342D01*
X157090000Y-131807342D02*
X157090000Y-130607342D01*
X157090000Y-130607342D02*
X156975714Y-130778771D01*
X156975714Y-130778771D02*
X156861429Y-130893057D01*
X156861429Y-130893057D02*
X156747143Y-130950200D01*
X128587667Y-133122200D02*
X128730524Y-133169819D01*
X128730524Y-133169819D02*
X128968619Y-133169819D01*
X128968619Y-133169819D02*
X129063857Y-133122200D01*
X129063857Y-133122200D02*
X129111476Y-133074580D01*
X129111476Y-133074580D02*
X129159095Y-132979342D01*
X129159095Y-132979342D02*
X129159095Y-132884104D01*
X129159095Y-132884104D02*
X129111476Y-132788866D01*
X129111476Y-132788866D02*
X129063857Y-132741247D01*
X129063857Y-132741247D02*
X128968619Y-132693628D01*
X128968619Y-132693628D02*
X128778143Y-132646009D01*
X128778143Y-132646009D02*
X128682905Y-132598390D01*
X128682905Y-132598390D02*
X128635286Y-132550771D01*
X128635286Y-132550771D02*
X128587667Y-132455533D01*
X128587667Y-132455533D02*
X128587667Y-132360295D01*
X128587667Y-132360295D02*
X128635286Y-132265057D01*
X128635286Y-132265057D02*
X128682905Y-132217438D01*
X128682905Y-132217438D02*
X128778143Y-132169819D01*
X128778143Y-132169819D02*
X129016238Y-132169819D01*
X129016238Y-132169819D02*
X129159095Y-132217438D01*
X129492429Y-132169819D02*
X129730524Y-133169819D01*
X129730524Y-133169819D02*
X129921000Y-132455533D01*
X129921000Y-132455533D02*
X130111476Y-133169819D01*
X130111476Y-133169819D02*
X130349572Y-132169819D01*
X131254333Y-133169819D02*
X130682905Y-133169819D01*
X130968619Y-133169819D02*
X130968619Y-132169819D01*
X130968619Y-132169819D02*
X130873381Y-132312676D01*
X130873381Y-132312676D02*
X130778143Y-132407914D01*
X130778143Y-132407914D02*
X130682905Y-132455533D01*
X122044819Y-121676666D02*
X121568628Y-122009999D01*
X122044819Y-122248094D02*
X121044819Y-122248094D01*
X121044819Y-122248094D02*
X121044819Y-121867142D01*
X121044819Y-121867142D02*
X121092438Y-121771904D01*
X121092438Y-121771904D02*
X121140057Y-121724285D01*
X121140057Y-121724285D02*
X121235295Y-121676666D01*
X121235295Y-121676666D02*
X121378152Y-121676666D01*
X121378152Y-121676666D02*
X121473390Y-121724285D01*
X121473390Y-121724285D02*
X121521009Y-121771904D01*
X121521009Y-121771904D02*
X121568628Y-121867142D01*
X121568628Y-121867142D02*
X121568628Y-122248094D01*
X121044819Y-121343332D02*
X121044819Y-120724285D01*
X121044819Y-120724285D02*
X121425771Y-121057618D01*
X121425771Y-121057618D02*
X121425771Y-120914761D01*
X121425771Y-120914761D02*
X121473390Y-120819523D01*
X121473390Y-120819523D02*
X121521009Y-120771904D01*
X121521009Y-120771904D02*
X121616247Y-120724285D01*
X121616247Y-120724285D02*
X121854342Y-120724285D01*
X121854342Y-120724285D02*
X121949580Y-120771904D01*
X121949580Y-120771904D02*
X121997200Y-120819523D01*
X121997200Y-120819523D02*
X122044819Y-120914761D01*
X122044819Y-120914761D02*
X122044819Y-121200475D01*
X122044819Y-121200475D02*
X121997200Y-121295713D01*
X121997200Y-121295713D02*
X121949580Y-121343332D01*
X128594819Y-122148094D02*
X127594819Y-122148094D01*
X127594819Y-122148094D02*
X127594819Y-121909999D01*
X127594819Y-121909999D02*
X127642438Y-121767142D01*
X127642438Y-121767142D02*
X127737676Y-121671904D01*
X127737676Y-121671904D02*
X127832914Y-121624285D01*
X127832914Y-121624285D02*
X128023390Y-121576666D01*
X128023390Y-121576666D02*
X128166247Y-121576666D01*
X128166247Y-121576666D02*
X128356723Y-121624285D01*
X128356723Y-121624285D02*
X128451961Y-121671904D01*
X128451961Y-121671904D02*
X128547200Y-121767142D01*
X128547200Y-121767142D02*
X128594819Y-121909999D01*
X128594819Y-121909999D02*
X128594819Y-122148094D01*
X127690057Y-121195713D02*
X127642438Y-121148094D01*
X127642438Y-121148094D02*
X127594819Y-121052856D01*
X127594819Y-121052856D02*
X127594819Y-120814761D01*
X127594819Y-120814761D02*
X127642438Y-120719523D01*
X127642438Y-120719523D02*
X127690057Y-120671904D01*
X127690057Y-120671904D02*
X127785295Y-120624285D01*
X127785295Y-120624285D02*
X127880533Y-120624285D01*
X127880533Y-120624285D02*
X128023390Y-120671904D01*
X128023390Y-120671904D02*
X128594819Y-121243332D01*
X128594819Y-121243332D02*
X128594819Y-120624285D01*
X120850819Y-130722666D02*
X120374628Y-131055999D01*
X120850819Y-131294094D02*
X119850819Y-131294094D01*
X119850819Y-131294094D02*
X119850819Y-130913142D01*
X119850819Y-130913142D02*
X119898438Y-130817904D01*
X119898438Y-130817904D02*
X119946057Y-130770285D01*
X119946057Y-130770285D02*
X120041295Y-130722666D01*
X120041295Y-130722666D02*
X120184152Y-130722666D01*
X120184152Y-130722666D02*
X120279390Y-130770285D01*
X120279390Y-130770285D02*
X120327009Y-130817904D01*
X120327009Y-130817904D02*
X120374628Y-130913142D01*
X120374628Y-130913142D02*
X120374628Y-131294094D01*
X120184152Y-129865523D02*
X120850819Y-129865523D01*
X119803200Y-130103618D02*
X120517485Y-130341713D01*
X120517485Y-130341713D02*
X120517485Y-129722666D01*
X113421333Y-137665819D02*
X113088000Y-137189628D01*
X112849905Y-137665819D02*
X112849905Y-136665819D01*
X112849905Y-136665819D02*
X113230857Y-136665819D01*
X113230857Y-136665819D02*
X113326095Y-136713438D01*
X113326095Y-136713438D02*
X113373714Y-136761057D01*
X113373714Y-136761057D02*
X113421333Y-136856295D01*
X113421333Y-136856295D02*
X113421333Y-136999152D01*
X113421333Y-136999152D02*
X113373714Y-137094390D01*
X113373714Y-137094390D02*
X113326095Y-137142009D01*
X113326095Y-137142009D02*
X113230857Y-137189628D01*
X113230857Y-137189628D02*
X112849905Y-137189628D01*
X113802286Y-136761057D02*
X113849905Y-136713438D01*
X113849905Y-136713438D02*
X113945143Y-136665819D01*
X113945143Y-136665819D02*
X114183238Y-136665819D01*
X114183238Y-136665819D02*
X114278476Y-136713438D01*
X114278476Y-136713438D02*
X114326095Y-136761057D01*
X114326095Y-136761057D02*
X114373714Y-136856295D01*
X114373714Y-136856295D02*
X114373714Y-136951533D01*
X114373714Y-136951533D02*
X114326095Y-137094390D01*
X114326095Y-137094390D02*
X113754667Y-137665819D01*
X113754667Y-137665819D02*
X114373714Y-137665819D01*
X118044819Y-126548094D02*
X117044819Y-126548094D01*
X117044819Y-126548094D02*
X117044819Y-126309999D01*
X117044819Y-126309999D02*
X117092438Y-126167142D01*
X117092438Y-126167142D02*
X117187676Y-126071904D01*
X117187676Y-126071904D02*
X117282914Y-126024285D01*
X117282914Y-126024285D02*
X117473390Y-125976666D01*
X117473390Y-125976666D02*
X117616247Y-125976666D01*
X117616247Y-125976666D02*
X117806723Y-126024285D01*
X117806723Y-126024285D02*
X117901961Y-126071904D01*
X117901961Y-126071904D02*
X117997200Y-126167142D01*
X117997200Y-126167142D02*
X118044819Y-126309999D01*
X118044819Y-126309999D02*
X118044819Y-126548094D01*
X118044819Y-125024285D02*
X118044819Y-125595713D01*
X118044819Y-125309999D02*
X117044819Y-125309999D01*
X117044819Y-125309999D02*
X117187676Y-125405237D01*
X117187676Y-125405237D02*
X117282914Y-125500475D01*
X117282914Y-125500475D02*
X117330533Y-125595713D01*
X126501905Y-128514819D02*
X126501905Y-127514819D01*
X126501905Y-127514819D02*
X126740000Y-127514819D01*
X126740000Y-127514819D02*
X126882857Y-127562438D01*
X126882857Y-127562438D02*
X126978095Y-127657676D01*
X126978095Y-127657676D02*
X127025714Y-127752914D01*
X127025714Y-127752914D02*
X127073333Y-127943390D01*
X127073333Y-127943390D02*
X127073333Y-128086247D01*
X127073333Y-128086247D02*
X127025714Y-128276723D01*
X127025714Y-128276723D02*
X126978095Y-128371961D01*
X126978095Y-128371961D02*
X126882857Y-128467200D01*
X126882857Y-128467200D02*
X126740000Y-128514819D01*
X126740000Y-128514819D02*
X126501905Y-128514819D01*
X127406667Y-127514819D02*
X128025714Y-127514819D01*
X128025714Y-127514819D02*
X127692381Y-127895771D01*
X127692381Y-127895771D02*
X127835238Y-127895771D01*
X127835238Y-127895771D02*
X127930476Y-127943390D01*
X127930476Y-127943390D02*
X127978095Y-127991009D01*
X127978095Y-127991009D02*
X128025714Y-128086247D01*
X128025714Y-128086247D02*
X128025714Y-128324342D01*
X128025714Y-128324342D02*
X127978095Y-128419580D01*
X127978095Y-128419580D02*
X127930476Y-128467200D01*
X127930476Y-128467200D02*
X127835238Y-128514819D01*
X127835238Y-128514819D02*
X127549524Y-128514819D01*
X127549524Y-128514819D02*
X127454286Y-128467200D01*
X127454286Y-128467200D02*
X127406667Y-128419580D01*
X124049580Y-121676666D02*
X124097200Y-121724285D01*
X124097200Y-121724285D02*
X124144819Y-121867142D01*
X124144819Y-121867142D02*
X124144819Y-121962380D01*
X124144819Y-121962380D02*
X124097200Y-122105237D01*
X124097200Y-122105237D02*
X124001961Y-122200475D01*
X124001961Y-122200475D02*
X123906723Y-122248094D01*
X123906723Y-122248094D02*
X123716247Y-122295713D01*
X123716247Y-122295713D02*
X123573390Y-122295713D01*
X123573390Y-122295713D02*
X123382914Y-122248094D01*
X123382914Y-122248094D02*
X123287676Y-122200475D01*
X123287676Y-122200475D02*
X123192438Y-122105237D01*
X123192438Y-122105237D02*
X123144819Y-121962380D01*
X123144819Y-121962380D02*
X123144819Y-121867142D01*
X123144819Y-121867142D02*
X123192438Y-121724285D01*
X123192438Y-121724285D02*
X123240057Y-121676666D01*
X123240057Y-121295713D02*
X123192438Y-121248094D01*
X123192438Y-121248094D02*
X123144819Y-121152856D01*
X123144819Y-121152856D02*
X123144819Y-120914761D01*
X123144819Y-120914761D02*
X123192438Y-120819523D01*
X123192438Y-120819523D02*
X123240057Y-120771904D01*
X123240057Y-120771904D02*
X123335295Y-120724285D01*
X123335295Y-120724285D02*
X123430533Y-120724285D01*
X123430533Y-120724285D02*
X123573390Y-120771904D01*
X123573390Y-120771904D02*
X124144819Y-121343332D01*
X124144819Y-121343332D02*
X124144819Y-120724285D01*
X114665819Y-120721333D02*
X115380104Y-120721333D01*
X115380104Y-120721333D02*
X115522961Y-120768952D01*
X115522961Y-120768952D02*
X115618200Y-120864190D01*
X115618200Y-120864190D02*
X115665819Y-121007047D01*
X115665819Y-121007047D02*
X115665819Y-121102285D01*
X115665819Y-120245142D02*
X114665819Y-120245142D01*
X114665819Y-120245142D02*
X114665819Y-119864190D01*
X114665819Y-119864190D02*
X114713438Y-119768952D01*
X114713438Y-119768952D02*
X114761057Y-119721333D01*
X114761057Y-119721333D02*
X114856295Y-119673714D01*
X114856295Y-119673714D02*
X114999152Y-119673714D01*
X114999152Y-119673714D02*
X115094390Y-119721333D01*
X115094390Y-119721333D02*
X115142009Y-119768952D01*
X115142009Y-119768952D02*
X115189628Y-119864190D01*
X115189628Y-119864190D02*
X115189628Y-120245142D01*
X115665819Y-118721333D02*
X115665819Y-119292761D01*
X115665819Y-119007047D02*
X114665819Y-119007047D01*
X114665819Y-119007047D02*
X114808676Y-119102285D01*
X114808676Y-119102285D02*
X114903914Y-119197523D01*
X114903914Y-119197523D02*
X114951533Y-119292761D01*
X171306666Y-117437819D02*
X171306666Y-118152104D01*
X171306666Y-118152104D02*
X171259047Y-118294961D01*
X171259047Y-118294961D02*
X171163809Y-118390200D01*
X171163809Y-118390200D02*
X171020952Y-118437819D01*
X171020952Y-118437819D02*
X170925714Y-118437819D01*
X171735238Y-117533057D02*
X171782857Y-117485438D01*
X171782857Y-117485438D02*
X171878095Y-117437819D01*
X171878095Y-117437819D02*
X172116190Y-117437819D01*
X172116190Y-117437819D02*
X172211428Y-117485438D01*
X172211428Y-117485438D02*
X172259047Y-117533057D01*
X172259047Y-117533057D02*
X172306666Y-117628295D01*
X172306666Y-117628295D02*
X172306666Y-117723533D01*
X172306666Y-117723533D02*
X172259047Y-117866390D01*
X172259047Y-117866390D02*
X171687619Y-118437819D01*
X171687619Y-118437819D02*
X172306666Y-118437819D01*
D11*
%TO.C,J3*%
X119583000Y-109006000D02*
X119583000Y-112376000D01*
X119583000Y-117086000D02*
X119583000Y-116086000D01*
X129083000Y-109006000D02*
X119583000Y-109006000D01*
X129083000Y-112376000D02*
X129083000Y-109006000D01*
X129083000Y-117086000D02*
X129083000Y-116086000D01*
D12*
%TO.C,R1*%
X115892000Y-130283936D02*
X115892000Y-134638064D01*
X119312000Y-130283936D02*
X119312000Y-134638064D01*
%TO.C,C3*%
X125105000Y-124321252D02*
X125105000Y-123798748D01*
X126575000Y-124321252D02*
X126575000Y-123798748D01*
%TO.C,T1*%
X145240000Y-128085000D02*
G75*
G02*
X130040000Y-128085000I-7600000J0D01*
G01*
X130040000Y-128085000D02*
G75*
G02*
X145240000Y-128085000I7600000J0D01*
G01*
X140940000Y-128085000D02*
G75*
G02*
X134340000Y-128085000I-3300000J0D01*
G01*
X134340000Y-128085000D02*
G75*
G02*
X140940000Y-128085000I3300000J0D01*
G01*
%TO.C,SW2*%
X134790000Y-111910000D02*
X134790000Y-114210000D01*
X134790000Y-114210000D02*
X135990000Y-114210000D01*
X138490000Y-114210000D02*
X137790000Y-114210000D01*
X140990000Y-114210000D02*
X140290000Y-114210000D01*
X142790000Y-114210000D02*
X143990000Y-114210000D01*
X143990000Y-114210000D02*
X143990000Y-111910000D01*
D13*
%TO.C,kibuzzard-67778075*%
G36*
X146113657Y-120008032D02*
G01*
X146150694Y-120028866D01*
X146176157Y-120062431D01*
X146185417Y-120110463D01*
X146175579Y-120159074D01*
X146149537Y-120191481D01*
X146113079Y-120210000D01*
X146070833Y-120215787D01*
X146070833Y-119998194D01*
X146113657Y-120008032D01*
G37*
G36*
X146060417Y-118360463D02*
G01*
X146037847Y-118449005D01*
X145963194Y-118481991D01*
X145911690Y-118470417D01*
X145880440Y-118440903D01*
X145865394Y-118399815D01*
X145861343Y-118352361D01*
X145862500Y-118317060D01*
X145865972Y-118284074D01*
X146060417Y-118284074D01*
X146060417Y-118360463D01*
G37*
G36*
X146346296Y-118315324D02*
G01*
X146347454Y-118348889D01*
X146344560Y-118387083D01*
X146332986Y-118419491D01*
X146308681Y-118441481D01*
X146267593Y-118449583D01*
X146202199Y-118421806D01*
X146178472Y-118339630D01*
X146178472Y-118284074D01*
X146342824Y-118284074D01*
X146346296Y-118315324D01*
G37*
G36*
X145950463Y-118858148D02*
G01*
X145970139Y-118883032D01*
X145979977Y-118919491D01*
X145982870Y-118962315D01*
X145981134Y-118998194D01*
X145977083Y-119031759D01*
X145852083Y-119031759D01*
X145849190Y-118993565D01*
X145848611Y-118948426D01*
X145864236Y-118876667D01*
X145916898Y-118848889D01*
X145950463Y-118858148D01*
G37*
G36*
X145950463Y-128117407D02*
G01*
X145970139Y-128142292D01*
X145979977Y-128178750D01*
X145982870Y-128221574D01*
X145981134Y-128257454D01*
X145977083Y-128291019D01*
X145852083Y-128291019D01*
X145849190Y-128252824D01*
X145848611Y-128207685D01*
X145864236Y-128135926D01*
X145916898Y-128108148D01*
X145950463Y-128117407D01*
G37*
G36*
X145950463Y-129274815D02*
G01*
X145970139Y-129299699D01*
X145979977Y-129336157D01*
X145982870Y-129378981D01*
X145981134Y-129414861D01*
X145977083Y-129448426D01*
X145852083Y-129448426D01*
X145849190Y-129410231D01*
X145848611Y-129365093D01*
X145864236Y-129293333D01*
X145916898Y-129265556D01*
X145950463Y-129274815D01*
G37*
G36*
X146089641Y-120576898D02*
G01*
X146139120Y-120594259D01*
X146169502Y-120624352D01*
X146179630Y-120668333D01*
X146173264Y-120712315D01*
X146157639Y-120749352D01*
X145861343Y-120749352D01*
X145857870Y-120718102D01*
X145856713Y-120685694D01*
X145868287Y-120633756D01*
X145903009Y-120598310D01*
X145955961Y-120577911D01*
X146022222Y-120571111D01*
X146089641Y-120576898D01*
G37*
G36*
X146084578Y-121736765D02*
G01*
X146136227Y-121758032D01*
X146169647Y-121793189D01*
X146180787Y-121841944D01*
X146169647Y-121891858D01*
X146136227Y-121925856D01*
X146084578Y-121945388D01*
X146018750Y-121951898D01*
X145952778Y-121944809D01*
X145900694Y-121923542D01*
X145866840Y-121888385D01*
X145855556Y-121839630D01*
X145866840Y-121789716D01*
X145900694Y-121755718D01*
X145952778Y-121736186D01*
X146018750Y-121729676D01*
X146084578Y-121736765D01*
G37*
G36*
X146152431Y-125200596D02*
G01*
X146199306Y-125203634D01*
X146278588Y-125219838D01*
X146332407Y-125253981D01*
X146352083Y-125313009D01*
X146332407Y-125372037D01*
X146279167Y-125406181D01*
X146199884Y-125422384D01*
X146152575Y-125425422D01*
X146102083Y-125426435D01*
X146051736Y-125425422D01*
X146004861Y-125422384D01*
X145925579Y-125406181D01*
X145871759Y-125371458D01*
X145852083Y-125313009D01*
X145871759Y-125253981D01*
X145925579Y-125219838D01*
X146004861Y-125203634D01*
X146051736Y-125200596D01*
X146102083Y-125199583D01*
X146152431Y-125200596D01*
G37*
G36*
X146646451Y-118045262D02*
G01*
X146646451Y-118141713D01*
X146646451Y-130778287D01*
X146646451Y-130874738D01*
X146050000Y-131272371D01*
X145453549Y-130874738D01*
X145453549Y-130778287D01*
X145453549Y-130604676D01*
X145734028Y-130604676D01*
X145740972Y-130693218D01*
X145764120Y-130778287D01*
X145886806Y-130758611D01*
X145871759Y-130722153D01*
X145863079Y-130689745D01*
X145859028Y-130657338D01*
X145857870Y-130620880D01*
X145861343Y-130587315D01*
X145875231Y-130561852D01*
X145904167Y-130545648D01*
X145952778Y-130539861D01*
X146172685Y-130539861D01*
X146172685Y-130767870D01*
X146290741Y-130767870D01*
X146290741Y-130539861D01*
X146450463Y-130539861D01*
X146427315Y-130397500D01*
X146290741Y-130397500D01*
X146290741Y-130273657D01*
X146172685Y-130273657D01*
X146172685Y-130397500D01*
X145949306Y-130397500D01*
X145887529Y-130400972D01*
X145838773Y-130411389D01*
X145773380Y-130451898D01*
X145742130Y-130516713D01*
X145734028Y-130604676D01*
X145453549Y-130604676D01*
X145453549Y-130163704D01*
X145453549Y-129726204D01*
X145746759Y-129726204D01*
X145746759Y-129868565D01*
X146173843Y-129868565D01*
X146177315Y-129901551D01*
X146178472Y-129933380D01*
X146144907Y-130003981D01*
X146100637Y-130017002D01*
X146034954Y-130021343D01*
X145746759Y-130021343D01*
X145746759Y-130163704D01*
X146053472Y-130163704D01*
X146106568Y-130161100D01*
X146154745Y-130153287D01*
X146233449Y-130117986D01*
X146284375Y-130050278D01*
X146297830Y-130001956D01*
X146302315Y-129942639D01*
X146300000Y-129879126D01*
X146293056Y-129820532D01*
X146283507Y-129768883D01*
X146273380Y-129726204D01*
X145746759Y-129726204D01*
X145453549Y-129726204D01*
X145453549Y-129354676D01*
X145734028Y-129354676D01*
X145736343Y-129427303D01*
X145743287Y-129492407D01*
X145759491Y-129585000D01*
X146083565Y-129585000D01*
X146175579Y-129573426D01*
X146245023Y-129535231D01*
X146289005Y-129464051D01*
X146300723Y-129413848D01*
X146304630Y-129352361D01*
X146302749Y-129301146D01*
X146297106Y-129251667D01*
X146280324Y-129176435D01*
X146165741Y-129196111D01*
X146179630Y-129256875D01*
X146185417Y-129335000D01*
X146178617Y-129388241D01*
X146158218Y-129422963D01*
X146090509Y-129448426D01*
X146073148Y-129448426D01*
X146080093Y-129402419D01*
X146082407Y-129350046D01*
X146073727Y-129265556D01*
X146045370Y-129193796D01*
X145993287Y-129144028D01*
X145913426Y-129125509D01*
X145829514Y-129141713D01*
X145773958Y-129188009D01*
X145743287Y-129260347D01*
X145734028Y-129354676D01*
X145453549Y-129354676D01*
X145453549Y-128976204D01*
X145746759Y-128976204D01*
X145820833Y-128994144D01*
X145902623Y-129010926D01*
X145992130Y-129026551D01*
X146063310Y-129037221D01*
X146136806Y-129046661D01*
X146212616Y-129054871D01*
X146290741Y-129061852D01*
X146290741Y-128940324D01*
X146239670Y-128938154D01*
X146190625Y-128936273D01*
X146094560Y-128931644D01*
X146046383Y-128928316D01*
X145997917Y-128924120D01*
X145948148Y-128918912D01*
X145896065Y-128912546D01*
X145977662Y-128888819D01*
X146049421Y-128870301D01*
X146115394Y-128854097D01*
X146180787Y-128839630D01*
X146180787Y-128736620D01*
X146115394Y-128720995D01*
X146049421Y-128704792D01*
X145977662Y-128685116D01*
X145896065Y-128659074D01*
X145963323Y-128650779D01*
X146029295Y-128644414D01*
X146093981Y-128639977D01*
X146158539Y-128636569D01*
X146224126Y-128633290D01*
X146290741Y-128630139D01*
X146290741Y-128508611D01*
X146212905Y-128515845D01*
X146136806Y-128523657D01*
X146062876Y-128532338D01*
X145991551Y-128542176D01*
X145923553Y-128553027D01*
X145859606Y-128564745D01*
X145800434Y-128577332D01*
X145746759Y-128590787D01*
X145746759Y-128698426D01*
X145813889Y-128723889D01*
X145872917Y-128744144D01*
X145931366Y-128763241D01*
X145997917Y-128784074D01*
X145930208Y-128804329D01*
X145871181Y-128824005D01*
X145812731Y-128844838D01*
X145746759Y-128868565D01*
X145746759Y-128976204D01*
X145453549Y-128976204D01*
X145453549Y-128868565D01*
X145453549Y-128197269D01*
X145734028Y-128197269D01*
X145736343Y-128269896D01*
X145743287Y-128335000D01*
X145759491Y-128427593D01*
X146083565Y-128427593D01*
X146175579Y-128416019D01*
X146245023Y-128377824D01*
X146289005Y-128306644D01*
X146300723Y-128256441D01*
X146304630Y-128194954D01*
X146302749Y-128143738D01*
X146297106Y-128094259D01*
X146280324Y-128019028D01*
X146165741Y-128038704D01*
X146179630Y-128099468D01*
X146185417Y-128177593D01*
X146178617Y-128230833D01*
X146158218Y-128265556D01*
X146090509Y-128291019D01*
X146073148Y-128291019D01*
X146080093Y-128245012D01*
X146082407Y-128192639D01*
X146073727Y-128108148D01*
X146045370Y-128036389D01*
X145993287Y-127986620D01*
X145913426Y-127968102D01*
X145829514Y-127984306D01*
X145773958Y-128030602D01*
X145743287Y-128102940D01*
X145734028Y-128197269D01*
X145453549Y-128197269D01*
X145453549Y-127662546D01*
X145731713Y-127662546D01*
X145734606Y-127733293D01*
X145743287Y-127792755D01*
X145764120Y-127872037D01*
X146121759Y-127872037D01*
X146121759Y-127729676D01*
X145860185Y-127729676D01*
X145856713Y-127701898D01*
X145855556Y-127674120D01*
X145870747Y-127604965D01*
X145916319Y-127554907D01*
X145964352Y-127532402D01*
X146027431Y-127518899D01*
X146105556Y-127514398D01*
X146158652Y-127516858D01*
X146206829Y-127524236D01*
X146285532Y-127556644D01*
X146337037Y-127613935D01*
X146355556Y-127699583D01*
X146342824Y-127775972D01*
X146313889Y-127838472D01*
X146427315Y-127875509D01*
X146441204Y-127851782D01*
X146458565Y-127811852D01*
X146473032Y-127754560D01*
X146479398Y-127679907D01*
X146473466Y-127617118D01*
X146455671Y-127558380D01*
X146426013Y-127505428D01*
X146384491Y-127460000D01*
X146331395Y-127422674D01*
X146267014Y-127394028D01*
X146191638Y-127375799D01*
X146105556Y-127369722D01*
X146018605Y-127374931D01*
X145942940Y-127390556D01*
X145878704Y-127415729D01*
X145826042Y-127449583D01*
X145784954Y-127491684D01*
X145755440Y-127541597D01*
X145737645Y-127598744D01*
X145731713Y-127662546D01*
X145453549Y-127662546D01*
X145453549Y-126706528D01*
X145453549Y-126234306D01*
X145746759Y-126234306D01*
X145746759Y-126706528D01*
X145864815Y-126706528D01*
X145864815Y-126398657D01*
X145919647Y-126428316D01*
X145975347Y-126459421D01*
X146032639Y-126492263D01*
X146092245Y-126527130D01*
X146154601Y-126564456D01*
X146220139Y-126604676D01*
X146289583Y-126648368D01*
X146363657Y-126696111D01*
X146463194Y-126696111D01*
X146463194Y-126249352D01*
X146345139Y-126249352D01*
X146345139Y-126524815D01*
X146262674Y-126476059D01*
X146186574Y-126431644D01*
X146116262Y-126390990D01*
X146051157Y-126353519D01*
X145990538Y-126319375D01*
X145933681Y-126288704D01*
X145880006Y-126260637D01*
X145828935Y-126234306D01*
X145746759Y-126234306D01*
X145453549Y-126234306D01*
X145453549Y-126128981D01*
X145453549Y-125654444D01*
X145746759Y-125654444D01*
X145746759Y-125796806D01*
X146062731Y-125796806D01*
X146062731Y-125986620D01*
X145746759Y-125986620D01*
X145746759Y-126128981D01*
X146463194Y-126128981D01*
X146463194Y-125986620D01*
X146180787Y-125986620D01*
X146180787Y-125796806D01*
X146463194Y-125796806D01*
X146463194Y-125654444D01*
X145746759Y-125654444D01*
X145453549Y-125654444D01*
X145453549Y-125535231D01*
X145550000Y-125535231D01*
X145651852Y-125565324D01*
X145667911Y-125488791D01*
X145685995Y-125430486D01*
X145734028Y-125368565D01*
X145755311Y-125429007D01*
X145792927Y-125479162D01*
X145846875Y-125519028D01*
X145916641Y-125547963D01*
X146001710Y-125565324D01*
X146102083Y-125571111D01*
X146188997Y-125566988D01*
X146264554Y-125554618D01*
X146328754Y-125534002D01*
X146381597Y-125505139D01*
X146434002Y-125454470D01*
X146465445Y-125390427D01*
X146475926Y-125313009D01*
X146465445Y-125237906D01*
X146434002Y-125174635D01*
X146381597Y-125123194D01*
X146328754Y-125093319D01*
X146264554Y-125071979D01*
X146188997Y-125059175D01*
X146102083Y-125054907D01*
X146003768Y-125060502D01*
X145920242Y-125077284D01*
X145851505Y-125105255D01*
X145797814Y-125143642D01*
X145759426Y-125191674D01*
X145736343Y-125249352D01*
X145664728Y-125276117D01*
X145611921Y-125330949D01*
X145585751Y-125384254D01*
X145565111Y-125452348D01*
X145550000Y-125535231D01*
X145453549Y-125535231D01*
X145453549Y-124976204D01*
X145453549Y-124541019D01*
X145746759Y-124541019D01*
X145746759Y-124976204D01*
X145864815Y-124976204D01*
X145864815Y-124833843D01*
X146463194Y-124833843D01*
X146463194Y-124736620D01*
X146418056Y-124686852D01*
X146376389Y-124625509D01*
X146340509Y-124560694D01*
X146313889Y-124500509D01*
X146195833Y-124546806D01*
X146224190Y-124617407D01*
X146265278Y-124691481D01*
X145864815Y-124691481D01*
X145864815Y-124541019D01*
X145746759Y-124541019D01*
X145453549Y-124541019D01*
X145453549Y-124081528D01*
X145746759Y-124081528D01*
X146053472Y-124081528D01*
X146053472Y-124340787D01*
X146171528Y-124340787D01*
X146171528Y-124081528D01*
X146345139Y-124081528D01*
X146345139Y-124377824D01*
X146463194Y-124377824D01*
X146463194Y-123939167D01*
X145746759Y-123939167D01*
X145746759Y-124081528D01*
X145453549Y-124081528D01*
X145453549Y-123939167D01*
X145453549Y-123539861D01*
X145731713Y-123539861D01*
X145736777Y-123604097D01*
X145751968Y-123657917D01*
X145775839Y-123702043D01*
X145806944Y-123737199D01*
X145887963Y-123781181D01*
X145935706Y-123791163D01*
X145986343Y-123794491D01*
X146463194Y-123794491D01*
X146463194Y-123411389D01*
X146345139Y-123411389D01*
X146345139Y-123650972D01*
X145994444Y-123650972D01*
X145927170Y-123642436D01*
X145885069Y-123616829D01*
X145862934Y-123577332D01*
X145855556Y-123527130D01*
X145872917Y-123454792D01*
X145908796Y-123390556D01*
X145795370Y-123336157D01*
X145750231Y-123418333D01*
X145736343Y-123473021D01*
X145731713Y-123539861D01*
X145453549Y-123539861D01*
X145453549Y-122640556D01*
X145453549Y-122203056D01*
X145746759Y-122203056D01*
X145746759Y-122345417D01*
X146173843Y-122345417D01*
X146177315Y-122378403D01*
X146178472Y-122410231D01*
X146144907Y-122480833D01*
X146100637Y-122493854D01*
X146034954Y-122498194D01*
X145746759Y-122498194D01*
X145746759Y-122640556D01*
X146053472Y-122640556D01*
X146106568Y-122637951D01*
X146154745Y-122630139D01*
X146233449Y-122594838D01*
X146284375Y-122527130D01*
X146297830Y-122478808D01*
X146302315Y-122419491D01*
X146300000Y-122355978D01*
X146293056Y-122297384D01*
X146283507Y-122245735D01*
X146273380Y-122203056D01*
X145746759Y-122203056D01*
X145453549Y-122203056D01*
X145453549Y-121841944D01*
X145731713Y-121841944D01*
X145736921Y-121897066D01*
X145752546Y-121946690D01*
X145777720Y-121990237D01*
X145811574Y-122027130D01*
X145853385Y-122056933D01*
X145902431Y-122079213D01*
X145958131Y-122093102D01*
X146019907Y-122097731D01*
X146080816Y-122093102D01*
X146136227Y-122079213D01*
X146185127Y-122056788D01*
X146226505Y-122026551D01*
X146259780Y-121989225D01*
X146284375Y-121945532D01*
X146299566Y-121896198D01*
X146304630Y-121841944D01*
X146299566Y-121788414D01*
X146284375Y-121738935D01*
X146259780Y-121694809D01*
X146226505Y-121657338D01*
X146185127Y-121626956D01*
X146136227Y-121604097D01*
X146080816Y-121589774D01*
X146019907Y-121585000D01*
X145958131Y-121589630D01*
X145902431Y-121603519D01*
X145853385Y-121625943D01*
X145811574Y-121656181D01*
X145777720Y-121693507D01*
X145752546Y-121737199D01*
X145736921Y-121786823D01*
X145731713Y-121841944D01*
X145453549Y-121841944D01*
X145453549Y-120684537D01*
X145734028Y-120684537D01*
X145736053Y-120739514D01*
X145742130Y-120795648D01*
X145751389Y-120848021D01*
X145762963Y-120891713D01*
X146550000Y-120891713D01*
X146525694Y-120749352D01*
X146278009Y-120749352D01*
X146295949Y-120700741D01*
X146302315Y-120644028D01*
X146293763Y-120578120D01*
X146268107Y-120523915D01*
X146225347Y-120481412D01*
X146167798Y-120450869D01*
X146097775Y-120432544D01*
X146015278Y-120426435D01*
X145934259Y-120433701D01*
X145865586Y-120455499D01*
X145809259Y-120491829D01*
X145767464Y-120542305D01*
X145742387Y-120606541D01*
X145734028Y-120684537D01*
X145453549Y-120684537D01*
X145453549Y-120149815D01*
X145734028Y-120149815D01*
X145742708Y-120243565D01*
X145764120Y-120322269D01*
X145885648Y-120302593D01*
X145867130Y-120237199D01*
X145857870Y-120155602D01*
X145865538Y-120092523D01*
X145888542Y-120042176D01*
X145924855Y-120009190D01*
X145972454Y-119998194D01*
X145972454Y-120351204D01*
X145996759Y-120352940D01*
X146025694Y-120353519D01*
X146109478Y-120346574D01*
X146178729Y-120325741D01*
X146233449Y-120291019D01*
X146272994Y-120242922D01*
X146296721Y-120181965D01*
X146304630Y-120108148D01*
X146300000Y-120060116D01*
X146286111Y-120013241D01*
X146263108Y-119969549D01*
X146231134Y-119931065D01*
X146190191Y-119898657D01*
X146140278Y-119873194D01*
X146081539Y-119856701D01*
X146014120Y-119851204D01*
X145949016Y-119856412D01*
X145892593Y-119872037D01*
X145844705Y-119897355D01*
X145805208Y-119931644D01*
X145774248Y-119974468D01*
X145751968Y-120025394D01*
X145738513Y-120083987D01*
X145734028Y-120149815D01*
X145453549Y-120149815D01*
X145453549Y-119499352D01*
X145734028Y-119499352D01*
X145737211Y-119563299D01*
X145746759Y-119616250D01*
X145781481Y-119693218D01*
X145833565Y-119735463D01*
X145897222Y-119748194D01*
X145969560Y-119730833D01*
X146018171Y-119686273D01*
X146050000Y-119625509D01*
X146073148Y-119560694D01*
X146087616Y-119519606D01*
X146103241Y-119486042D01*
X146121181Y-119462894D01*
X146143750Y-119454213D01*
X146172106Y-119473310D01*
X146185417Y-119546806D01*
X146172106Y-119640556D01*
X146153009Y-119701898D01*
X146273380Y-119723889D01*
X146296528Y-119644606D01*
X146302604Y-119597008D01*
X146304630Y-119545648D01*
X146301302Y-119488646D01*
X146291319Y-119440324D01*
X146254282Y-119367986D01*
X146199884Y-119326319D01*
X146134491Y-119313009D01*
X146063310Y-119330370D01*
X146016435Y-119374352D01*
X145985764Y-119433380D01*
X145964352Y-119497037D01*
X145950463Y-119539282D01*
X145935995Y-119575162D01*
X145918056Y-119599468D01*
X145892593Y-119608148D01*
X145861921Y-119580370D01*
X145854398Y-119500509D01*
X145868287Y-119407338D01*
X145898380Y-119321111D01*
X145779167Y-119299120D01*
X145750231Y-119378981D01*
X145738079Y-119433958D01*
X145734028Y-119499352D01*
X145453549Y-119499352D01*
X145453549Y-118938009D01*
X145734028Y-118938009D01*
X145736343Y-119010637D01*
X145743287Y-119075741D01*
X145759491Y-119168333D01*
X146083565Y-119168333D01*
X146175579Y-119156759D01*
X146245023Y-119118565D01*
X146289005Y-119047384D01*
X146300723Y-118997182D01*
X146304630Y-118935694D01*
X146302749Y-118884479D01*
X146297106Y-118835000D01*
X146280324Y-118759769D01*
X146165741Y-118779444D01*
X146179630Y-118840208D01*
X146185417Y-118918333D01*
X146178617Y-118971574D01*
X146158218Y-119006296D01*
X146090509Y-119031759D01*
X146073148Y-119031759D01*
X146080093Y-118985752D01*
X146082407Y-118933380D01*
X146073727Y-118848889D01*
X146045370Y-118777130D01*
X145993287Y-118727361D01*
X145913426Y-118708843D01*
X145829514Y-118725046D01*
X145773958Y-118771343D01*
X145743287Y-118843681D01*
X145734028Y-118938009D01*
X145453549Y-118938009D01*
X145453549Y-118340787D01*
X145737500Y-118340787D01*
X145740249Y-118397934D01*
X145748495Y-118451319D01*
X145763252Y-118499352D01*
X145785532Y-118540440D01*
X145854977Y-118600046D01*
X145903733Y-118616539D01*
X145963194Y-118622037D01*
X146011806Y-118615527D01*
X146058102Y-118595995D01*
X146098611Y-118558235D01*
X146129861Y-118497037D01*
X146192361Y-118563588D01*
X146234606Y-118582251D01*
X146282639Y-118588472D01*
X146349769Y-118578056D01*
X146410532Y-118538704D01*
X146454514Y-118458843D01*
X146467101Y-118400394D01*
X146471296Y-118326898D01*
X146466088Y-118230833D01*
X146453935Y-118141713D01*
X145758333Y-118141713D01*
X145749219Y-118191771D01*
X145742708Y-118242407D01*
X145738802Y-118292465D01*
X145737500Y-118340787D01*
X145453549Y-118340787D01*
X145453549Y-118141713D01*
X145453549Y-118045262D01*
X146050000Y-117647629D01*
X146646451Y-118045262D01*
G37*
%TO.C,C1*%
D14*
X166540000Y-134460000D02*
X146540000Y-134460000D01*
X146540000Y-114460000D01*
X166540000Y-114460000D01*
X166540000Y-134460000D01*
D11*
%TO.C,SW1*%
X120468000Y-133659000D02*
X129468000Y-133659000D01*
X120468000Y-137359000D02*
X120468000Y-133659000D01*
X123218000Y-137359000D02*
X120468000Y-137359000D01*
X124718000Y-137359000D02*
X123218000Y-137359000D01*
X125218000Y-137359000D02*
X124718000Y-137359000D01*
X126718000Y-137359000D02*
X125218000Y-137359000D01*
X129468000Y-133659000D02*
X129468000Y-137359000D01*
X129468000Y-137359000D02*
X126718000Y-137359000D01*
D13*
%TO.C,kibuzzard-69227399*%
G36*
X167994393Y-133595318D02*
G01*
X168039304Y-133617612D01*
X168068383Y-133655738D01*
X168078076Y-133710666D01*
X168041889Y-133800488D01*
X167994393Y-133824236D01*
X167924280Y-133832152D01*
X167889385Y-133832152D01*
X167889385Y-133591764D01*
X167915233Y-133588533D01*
X167937204Y-133587887D01*
X167994393Y-133595318D01*
G37*
G36*
X171061734Y-133342942D02*
G01*
X171160248Y-133372826D01*
X171251039Y-133421355D01*
X171330618Y-133486664D01*
X171395927Y-133566243D01*
X171444456Y-133657035D01*
X171474340Y-133755549D01*
X171484430Y-133858000D01*
X171474340Y-133960451D01*
X171444456Y-134058965D01*
X171395927Y-134149757D01*
X171330618Y-134229336D01*
X171251039Y-134294645D01*
X171160248Y-134343174D01*
X171061734Y-134373058D01*
X170959282Y-134383148D01*
X170851582Y-134383148D01*
X170627995Y-134383148D01*
X169193423Y-134383148D01*
X168388254Y-134383148D01*
X168292616Y-134383148D01*
X167730418Y-134383148D01*
X167622718Y-134383148D01*
X167520267Y-134373058D01*
X167421752Y-134343174D01*
X167330961Y-134294645D01*
X167251382Y-134229336D01*
X167186073Y-134149757D01*
X167137544Y-134058965D01*
X167107660Y-133960451D01*
X167097570Y-133858000D01*
X167107660Y-133755549D01*
X167137544Y-133657035D01*
X167186073Y-133566243D01*
X167251382Y-133486664D01*
X167271348Y-133470278D01*
X167730418Y-133470278D01*
X167730418Y-134258646D01*
X167889385Y-134258646D01*
X167889385Y-133963977D01*
X167972099Y-133963977D01*
X168015879Y-134037160D01*
X168056751Y-134109373D01*
X168093746Y-134182556D01*
X168125895Y-134258646D01*
X168292616Y-134258646D01*
X168388254Y-134258646D01*
X168901339Y-134258646D01*
X168901339Y-134126821D01*
X168547220Y-134126821D01*
X168547220Y-133901942D01*
X168830257Y-133901942D01*
X168830257Y-133770116D01*
X168547220Y-133770116D01*
X168547220Y-133590472D01*
X168872906Y-133590472D01*
X168872906Y-133458646D01*
X168969837Y-133458646D01*
X168984700Y-133531021D01*
X169006024Y-133621489D01*
X169023113Y-133689197D01*
X169041637Y-133759633D01*
X169061598Y-133832798D01*
X169082707Y-133907399D01*
X169104678Y-133982143D01*
X169127511Y-134057031D01*
X169161436Y-134163654D01*
X169193423Y-134258646D01*
X169357559Y-134258646D01*
X169382258Y-134189790D01*
X169406383Y-134119353D01*
X169429934Y-134047338D01*
X169452551Y-133974963D01*
X169473876Y-133903450D01*
X169486762Y-133858000D01*
X170280338Y-133858000D01*
X170285911Y-133952426D01*
X170302632Y-134035383D01*
X170330499Y-134106869D01*
X170369514Y-134166885D01*
X170437868Y-134227198D01*
X170524028Y-134263385D01*
X170627995Y-134275447D01*
X170698593Y-134271086D01*
X170760467Y-134258000D01*
X170851582Y-134219874D01*
X170811517Y-134094511D01*
X170746250Y-134122943D01*
X170643504Y-134137160D01*
X170551259Y-134118905D01*
X170489061Y-134064139D01*
X170462854Y-134008350D01*
X170447130Y-133938345D01*
X170441889Y-133854123D01*
X170446250Y-133781748D01*
X170459336Y-133722297D01*
X170504570Y-133637645D01*
X170567898Y-133592410D01*
X170640919Y-133578840D01*
X170737204Y-133592410D01*
X170808932Y-133625367D01*
X170850289Y-133498711D01*
X170823795Y-133483202D01*
X170780499Y-133463816D01*
X170720402Y-133447661D01*
X170643504Y-133440553D01*
X170567737Y-133447499D01*
X170498108Y-133468339D01*
X170436073Y-133502588D01*
X170383084Y-133549761D01*
X170339950Y-133609373D01*
X170307478Y-133680940D01*
X170287123Y-133763977D01*
X170280338Y-133858000D01*
X169486762Y-133858000D01*
X169493908Y-133832798D01*
X169521372Y-133729890D01*
X169545604Y-133631829D01*
X169566444Y-133540714D01*
X169583730Y-133458646D01*
X169417010Y-133458646D01*
X169405378Y-133525851D01*
X169391162Y-133603396D01*
X169375006Y-133687241D01*
X169357559Y-133773347D01*
X169338819Y-133859939D01*
X169318787Y-133945237D01*
X169298108Y-134025205D01*
X169277430Y-134095803D01*
X169256590Y-134024236D01*
X169235427Y-133943945D01*
X169214748Y-133858646D01*
X169195362Y-133772055D01*
X169177430Y-133686110D01*
X169161113Y-133602750D01*
X169147543Y-133525690D01*
X169137850Y-133458646D01*
X168969837Y-133458646D01*
X168872906Y-133458646D01*
X168388254Y-133458646D01*
X168388254Y-134258646D01*
X168292616Y-134258646D01*
X168255782Y-134173994D01*
X168211194Y-134084817D01*
X168163375Y-133999519D01*
X168116848Y-133925205D01*
X168173391Y-133888695D01*
X168211194Y-133838614D01*
X168232519Y-133778517D01*
X168239627Y-133711958D01*
X168234296Y-133649115D01*
X168218302Y-133594995D01*
X168156913Y-133512927D01*
X168112971Y-133484817D01*
X168061275Y-133465108D01*
X168002470Y-133453477D01*
X167937204Y-133449599D01*
X167891969Y-133450892D01*
X167837688Y-133454123D01*
X167781469Y-133460585D01*
X167730418Y-133470278D01*
X167271348Y-133470278D01*
X167330961Y-133421355D01*
X167421752Y-133372826D01*
X167520267Y-133342942D01*
X167622718Y-133332852D01*
X167730418Y-133332852D01*
X170851582Y-133332852D01*
X170959282Y-133332852D01*
X171061734Y-133342942D01*
G37*
%TO.C,kibuzzard-677780D3*%
G36*
X172082340Y-130982789D02*
G01*
X172124906Y-131147734D01*
X172160822Y-131311349D01*
X172192747Y-131481615D01*
X171870837Y-131481615D01*
X171904092Y-131311349D01*
X171941338Y-131147734D01*
X171983905Y-130982789D01*
X172033122Y-130805872D01*
X172082340Y-130982789D01*
G37*
G36*
X174742747Y-130982789D02*
G01*
X174785313Y-131147734D01*
X174821229Y-131311349D01*
X174853153Y-131481615D01*
X174531244Y-131481615D01*
X174564499Y-131311349D01*
X174601745Y-131147734D01*
X174644311Y-130982789D01*
X174693529Y-130805872D01*
X174742747Y-130982789D01*
G37*
G36*
X173387934Y-130767961D02*
G01*
X173480383Y-130813853D01*
X173540243Y-130892335D01*
X173560196Y-131005402D01*
X173485704Y-131190300D01*
X173387934Y-131239185D01*
X173243607Y-131255480D01*
X173171776Y-131255480D01*
X173171776Y-130760645D01*
X173224984Y-130753994D01*
X173270211Y-130752664D01*
X173387934Y-130767961D01*
G37*
G36*
X170799358Y-131368215D02*
G01*
X170875845Y-131419095D01*
X170931714Y-131611975D01*
X170919742Y-131705089D01*
X170882496Y-131792883D01*
X170817316Y-131859393D01*
X170721542Y-131885997D01*
X170605814Y-131852742D01*
X170532653Y-131763618D01*
X170495407Y-131637249D01*
X170484765Y-131489596D01*
X170486096Y-131439049D01*
X170490086Y-131391161D01*
X170577880Y-131361897D01*
X170681635Y-131351255D01*
X170799358Y-131368215D01*
G37*
G36*
X175907524Y-130030827D02*
G01*
X176033079Y-130049451D01*
X176156203Y-130080292D01*
X176275712Y-130123053D01*
X176390454Y-130177322D01*
X176499324Y-130242576D01*
X176601274Y-130318187D01*
X176695321Y-130403427D01*
X176780561Y-130497475D01*
X176856172Y-130599425D01*
X176921427Y-130708295D01*
X176975695Y-130823037D01*
X177018456Y-130942545D01*
X177049297Y-131065670D01*
X177067922Y-131191225D01*
X177074150Y-131318000D01*
X177067922Y-131444775D01*
X177049297Y-131570330D01*
X177018456Y-131693455D01*
X176975695Y-131812963D01*
X176921427Y-131927705D01*
X176856172Y-132036575D01*
X176780561Y-132138525D01*
X176695321Y-132232573D01*
X176601274Y-132317813D01*
X176499324Y-132393424D01*
X176390454Y-132458678D01*
X176275712Y-132512947D01*
X176156203Y-132555708D01*
X176033079Y-132586549D01*
X175907524Y-132605173D01*
X175780749Y-132611401D01*
X175337347Y-132611401D01*
X174986174Y-132611401D01*
X174001823Y-132611401D01*
X172325767Y-132611401D01*
X170729523Y-132611401D01*
X169654718Y-132611401D01*
X168832653Y-132611401D01*
X168389251Y-132611401D01*
X168262476Y-132605173D01*
X168136921Y-132586549D01*
X168013797Y-132555708D01*
X167894288Y-132512947D01*
X167779546Y-132458678D01*
X167670676Y-132393424D01*
X167568726Y-132317813D01*
X167474679Y-132232573D01*
X167389439Y-132138525D01*
X167385649Y-132133415D01*
X168832653Y-132133415D01*
X169127958Y-132133415D01*
X169127958Y-131039987D01*
X169226836Y-131222521D01*
X169321281Y-131404759D01*
X169411291Y-131586701D01*
X169496868Y-131768643D01*
X169578010Y-131950881D01*
X169654718Y-132133415D01*
X169918099Y-132133415D01*
X169918099Y-131460332D01*
X170162856Y-131460332D01*
X170178966Y-131681885D01*
X170227297Y-131860575D01*
X170307848Y-131996404D01*
X170419142Y-132091735D01*
X170559700Y-132148934D01*
X170729523Y-132168000D01*
X170855892Y-132155031D01*
X170915751Y-132133415D01*
X171394624Y-132133415D01*
X171735157Y-132133415D01*
X171809648Y-131752977D01*
X172248615Y-131752977D01*
X172325767Y-132133415D01*
X172676941Y-132133415D01*
X172633044Y-131946707D01*
X172588615Y-131765427D01*
X172543654Y-131589574D01*
X172498161Y-131419149D01*
X172452136Y-131254150D01*
X172394189Y-131054038D01*
X172336076Y-130859412D01*
X172277796Y-130670274D01*
X172226971Y-130510567D01*
X172844546Y-130510567D01*
X172844546Y-132133415D01*
X173171776Y-132133415D01*
X173171776Y-131526842D01*
X173342042Y-131526842D01*
X173432164Y-131677487D01*
X173516299Y-131826138D01*
X173592453Y-131976783D01*
X173658631Y-132133415D01*
X174001823Y-132133415D01*
X174055031Y-132133415D01*
X174395563Y-132133415D01*
X174470055Y-131752977D01*
X174909022Y-131752977D01*
X174986174Y-132133415D01*
X175337347Y-132133415D01*
X175293451Y-131946707D01*
X175249022Y-131765427D01*
X175204061Y-131589574D01*
X175158568Y-131419149D01*
X175112543Y-131254150D01*
X175054596Y-131054038D01*
X174996483Y-130859412D01*
X174938203Y-130670274D01*
X174879757Y-130486623D01*
X174523263Y-130486623D01*
X174466896Y-130668778D01*
X174409531Y-130856087D01*
X174351168Y-131048551D01*
X174291808Y-131246169D01*
X174244027Y-131409784D01*
X174196459Y-131580316D01*
X174149103Y-131757765D01*
X174101961Y-131942131D01*
X174055031Y-132133415D01*
X174001823Y-132133415D01*
X173926002Y-131959158D01*
X173834218Y-131775590D01*
X173735783Y-131600003D01*
X173640008Y-131447030D01*
X173756401Y-131371873D01*
X173834218Y-131268782D01*
X173878114Y-131145074D01*
X173892747Y-131008063D01*
X173881772Y-130878700D01*
X173848850Y-130767296D01*
X173722480Y-130598360D01*
X173632027Y-130540496D01*
X173525610Y-130499925D01*
X173404562Y-130475981D01*
X173270211Y-130468000D01*
X173177097Y-130470660D01*
X173065360Y-130477311D01*
X172949632Y-130490613D01*
X172844546Y-130510567D01*
X172226971Y-130510567D01*
X172219351Y-130486623D01*
X171862856Y-130486623D01*
X171806489Y-130668778D01*
X171749124Y-130856087D01*
X171690761Y-131048551D01*
X171631401Y-131246169D01*
X171583620Y-131409784D01*
X171536052Y-131580316D01*
X171488696Y-131757765D01*
X171441554Y-131942131D01*
X171394624Y-132133415D01*
X170915751Y-132133415D01*
X170963639Y-132116122D01*
X171125923Y-131981772D01*
X171220368Y-131800864D01*
X171250962Y-131606654D01*
X171223028Y-131404463D01*
X171131244Y-131236858D01*
X170967629Y-131122460D01*
X170856890Y-131090535D01*
X170724202Y-131079894D01*
X170639069Y-131091865D01*
X170540634Y-131125121D01*
X170632418Y-130952194D01*
X170780070Y-130839127D01*
X170966299Y-130776607D01*
X171173811Y-130755324D01*
X171155188Y-130475981D01*
X170941690Y-130491944D01*
X170748146Y-130539831D01*
X170577880Y-130618978D01*
X170434218Y-130728720D01*
X170318822Y-130868391D01*
X170233357Y-131037327D01*
X170180481Y-131234862D01*
X170162856Y-131460332D01*
X169918099Y-131460332D01*
X169918099Y-130486623D01*
X169622793Y-130486623D01*
X169622793Y-131500238D01*
X169575904Y-131396482D01*
X169520368Y-131276764D01*
X169457848Y-131147069D01*
X169390008Y-131013383D01*
X169318509Y-130877370D01*
X169245016Y-130740692D01*
X169170524Y-130608669D01*
X169096033Y-130486623D01*
X168832653Y-130486623D01*
X168832653Y-132133415D01*
X167385649Y-132133415D01*
X167313828Y-132036575D01*
X167248574Y-131927705D01*
X167194305Y-131812963D01*
X167151544Y-131693455D01*
X167120703Y-131570330D01*
X167102078Y-131444775D01*
X167095850Y-131318000D01*
X167102078Y-131191225D01*
X167120703Y-131065670D01*
X167151544Y-130942545D01*
X167194305Y-130823037D01*
X167248574Y-130708295D01*
X167313828Y-130599425D01*
X167389439Y-130497475D01*
X167474679Y-130403427D01*
X167568726Y-130318187D01*
X167670676Y-130242576D01*
X167779546Y-130177322D01*
X167894288Y-130123053D01*
X168013797Y-130080292D01*
X168136921Y-130049451D01*
X168262476Y-130030827D01*
X168389251Y-130024599D01*
X168832653Y-130024599D01*
X175337347Y-130024599D01*
X175780749Y-130024599D01*
X175907524Y-130030827D01*
G37*
D12*
%TO.C,R3*%
X120855000Y-123832936D02*
X120855000Y-124287064D01*
X122325000Y-123832936D02*
X122325000Y-124287064D01*
%TO.C,D2*%
X127505000Y-122420000D02*
X128775000Y-122420000D01*
%TO.C,R4*%
X127018064Y-128846000D02*
X122663936Y-128846000D01*
X127018064Y-132266000D02*
X122663936Y-132266000D01*
%TO.C,R2*%
X111828000Y-134638064D02*
X111828000Y-130283936D01*
X115248000Y-134638064D02*
X115248000Y-130283936D01*
%TO.C,D1*%
X118340000Y-123150000D02*
X118340000Y-127160000D01*
X120340000Y-123150000D02*
X118340000Y-123150000D01*
X120340000Y-123150000D02*
X120340000Y-127160000D01*
%TO.C,D3*%
X121030000Y-125850000D02*
X121030000Y-128070000D01*
X121030000Y-128070000D02*
X125440000Y-128070000D01*
X125440000Y-125850000D02*
X121030000Y-125850000D01*
%TO.C,C2*%
X122955000Y-124321252D02*
X122955000Y-123798748D01*
X124425000Y-124321252D02*
X124425000Y-123798748D01*
%TO.C,JP1*%
X112411000Y-120588000D02*
X112411000Y-119188000D01*
X113111000Y-118488000D02*
X113711000Y-118488000D01*
X113711000Y-121288000D02*
X113111000Y-121288000D01*
X114411000Y-119188000D02*
X114411000Y-120588000D01*
X112411000Y-119188000D02*
G75*
G02*
X113111000Y-118488000I699999J1D01*
G01*
X113111000Y-121288000D02*
G75*
G02*
X112411000Y-120588000I0J700000D01*
G01*
X113711000Y-118488000D02*
G75*
G02*
X114411000Y-119188000I1J-699999D01*
G01*
X114411000Y-120588000D02*
G75*
G02*
X113711000Y-121288000I-700000J0D01*
G01*
D11*
%TO.C,J2*%
X167720000Y-126460000D02*
X167720000Y-122460000D01*
X171140000Y-119710000D02*
X172140000Y-119710000D01*
X171140000Y-129210000D02*
X172140000Y-129210000D01*
X175850000Y-129210000D02*
X179220000Y-129210000D01*
X179220000Y-119710000D02*
X175850000Y-119710000D01*
X179220000Y-129210000D02*
X179220000Y-119710000D01*
%TD*%
M02*
