M48
; DRILL file {KiCad 9.0.5} date 2025-11-29T21:51:25-0800
; FORMAT={-:-/ absolute / metric / decimal}
; #@! TF.CreationDate,2025-11-29T21:51:25-08:00
; #@! TF.GenerationSoftware,Kicad,Pcbnew,9.0.5
; #@! TF.FileFunction,Plated,1,2,PTH
FMAT,2
METRIC
; #@! TA.AperFunction,Plated,PTH,ViaDrill
T1C0.305
; #@! TA.AperFunction,Plated,PTH,ViaDrill
T2C0.500
; #@! TA.AperFunction,Plated,PTH,ComponentDrill
T3C0.900
; #@! TA.AperFunction,Plated,PTH,ComponentDrill
T4C1.000
; #@! TA.AperFunction,Plated,PTH,ComponentDrill
T5C1.200
; #@! TA.AperFunction,Plated,PTH,ComponentDrill
T6C1.950
%
G90
G05
T1
X117.602Y-133.985
X118.491Y-128.016
T2
X116.967Y-121.285
X116.967Y-127.635
X116.99Y-124.46
X129.667Y-122.555
X140.843Y-118.01
T3
X122.468Y-133.859
X122.468Y-137.159
X124.968Y-133.859
X124.968Y-137.159
X127.468Y-133.859
X127.468Y-137.159
T5
X132.64Y-120.085
X132.64Y-136.085
X137.64Y-118.585
X142.64Y-136.085
X143.69Y-120.885
T6
X120.583Y-114.086
X120.583Y-119.086
X128.083Y-114.086
X128.083Y-119.086
X169.14Y-120.71
X169.14Y-128.21
X174.14Y-120.71
X174.14Y-128.21
T4
G00X150.14Y-112.96
M15
G01X148.94Y-112.96
M16
G05
G00X150.14Y-135.96
M15
G01X148.94Y-135.96
M16
G05
G00X157.14Y-112.96
M15
G01X155.94Y-112.96
M16
G05
G00X157.14Y-135.96
M15
G01X155.94Y-135.96
M16
G05
G00X164.14Y-112.96
M15
G01X162.94Y-112.96
M16
G05
G00X164.14Y-135.96
M15
G01X162.94Y-135.96
M16
G05
M30
