%TF.GenerationSoftware,KiCad,Pcbnew,9.0.5*%
%TF.CreationDate,2025-11-29T21:51:22-08:00*%
%TF.ProjectId,TinyGawant,54696e79-4761-4776-916e-742e6b696361,rev?*%
%TF.SameCoordinates,Original*%
%TF.FileFunction,Copper,L1,Top*%
%TF.FilePolarity,Positive*%
%FSLAX46Y46*%
G04 Gerber Fmt 4.6, Leading zero omitted, Abs format (unit mm)*
G04 Created by KiCad (PCBNEW 9.0.5) date 2025-11-29 21:51:22*
%MOMM*%
%LPD*%
G01*
G04 APERTURE LIST*
G04 Aperture macros list*
%AMRoundRect*
0 Rectangle with rounded corners*
0 $1 Rounding radius*
0 $2 $3 $4 $5 $6 $7 $8 $9 X,Y pos of 4 corners*
0 Add a 4 corners polygon primitive as box body*
4,1,4,$2,$3,$4,$5,$6,$7,$8,$9,$2,$3,0*
0 Add four circle primitives for the rounded corners*
1,1,$1+$1,$2,$3*
1,1,$1+$1,$4,$5*
1,1,$1+$1,$6,$7*
1,1,$1+$1,$8,$9*
0 Add four rect primitives between the rounded corners*
20,1,$1+$1,$2,$3,$4,$5,0*
20,1,$1+$1,$4,$5,$6,$7,0*
20,1,$1+$1,$6,$7,$8,$9,0*
20,1,$1+$1,$8,$9,$2,$3,0*%
%AMFreePoly0*
4,1,23,0.500000,-0.750000,0.000000,-0.750000,0.000000,-0.745722,-0.065263,-0.745722,-0.191342,-0.711940,-0.304381,-0.646677,-0.396677,-0.554381,-0.461940,-0.441342,-0.495722,-0.315263,-0.495722,-0.250000,-0.500000,-0.250000,-0.500000,0.250000,-0.495722,0.250000,-0.495722,0.315263,-0.461940,0.441342,-0.396677,0.554381,-0.304381,0.646677,-0.191342,0.711940,-0.065263,0.745722,0.000000,0.745722,
0.000000,0.750000,0.500000,0.750000,0.500000,-0.750000,0.500000,-0.750000,$1*%
%AMFreePoly1*
4,1,23,0.000000,0.745722,0.065263,0.745722,0.191342,0.711940,0.304381,0.646677,0.396677,0.554381,0.461940,0.441342,0.495722,0.315263,0.495722,0.250000,0.500000,0.250000,0.500000,-0.250000,0.495722,-0.250000,0.495722,-0.315263,0.461940,-0.441342,0.396677,-0.554381,0.304381,-0.646677,0.191342,-0.711940,0.065263,-0.745722,0.000000,-0.745722,0.000000,-0.750000,-0.500000,-0.750000,
-0.500000,0.750000,0.000000,0.750000,0.000000,0.745722,0.000000,0.745722,$1*%
G04 Aperture macros list end*
%TA.AperFunction,ComponentPad*%
%ADD10C,2.925000*%
%TD*%
%TA.AperFunction,SMDPad,CuDef*%
%ADD11RoundRect,0.250000X-1.425000X0.362500X-1.425000X-0.362500X1.425000X-0.362500X1.425000X0.362500X0*%
%TD*%
%TA.AperFunction,SMDPad,CuDef*%
%ADD12RoundRect,0.500000X-2.250000X-0.500000X2.250000X-0.500000X2.250000X0.500000X-2.250000X0.500000X0*%
%TD*%
%TA.AperFunction,SMDPad,CuDef*%
%ADD13RoundRect,0.250000X0.475000X-0.250000X0.475000X0.250000X-0.475000X0.250000X-0.475000X-0.250000X0*%
%TD*%
%TA.AperFunction,ComponentPad*%
%ADD14C,3.000000*%
%TD*%
%TA.AperFunction,SMDPad,CuDef*%
%ADD15RoundRect,0.250000X0.375000X1.000000X-0.375000X1.000000X-0.375000X-1.000000X0.375000X-1.000000X0*%
%TD*%
%TA.AperFunction,ComponentPad*%
%ADD16O,4.200000X2.500000*%
%TD*%
%TA.AperFunction,ComponentPad*%
%ADD17R,1.408000X1.408000*%
%TD*%
%TA.AperFunction,SMDPad,CuDef*%
%ADD18RoundRect,0.250000X-0.450000X0.262500X-0.450000X-0.262500X0.450000X-0.262500X0.450000X0.262500X0*%
%TD*%
%TA.AperFunction,SMDPad,CuDef*%
%ADD19RoundRect,0.250000X-0.350000X0.250000X-0.350000X-0.250000X0.350000X-0.250000X0.350000X0.250000X0*%
%TD*%
%TA.AperFunction,SMDPad,CuDef*%
%ADD20RoundRect,0.250000X0.362500X1.425000X-0.362500X1.425000X-0.362500X-1.425000X0.362500X-1.425000X0*%
%TD*%
%TA.AperFunction,SMDPad,CuDef*%
%ADD21RoundRect,0.250000X1.425000X-0.362500X1.425000X0.362500X-1.425000X0.362500X-1.425000X-0.362500X0*%
%TD*%
%TA.AperFunction,SMDPad,CuDef*%
%ADD22RoundRect,0.225000X-0.375000X0.225000X-0.375000X-0.225000X0.375000X-0.225000X0.375000X0.225000X0*%
%TD*%
%TA.AperFunction,SMDPad,CuDef*%
%ADD23RoundRect,0.250000X-0.400000X-0.600000X0.400000X-0.600000X0.400000X0.600000X-0.400000X0.600000X0*%
%TD*%
%TA.AperFunction,SMDPad,CuDef*%
%ADD24FreePoly0,270.000000*%
%TD*%
%TA.AperFunction,SMDPad,CuDef*%
%ADD25FreePoly1,270.000000*%
%TD*%
%TA.AperFunction,ViaPad*%
%ADD26C,1.000000*%
%TD*%
%TA.AperFunction,ViaPad*%
%ADD27C,0.609600*%
%TD*%
%TA.AperFunction,Conductor*%
%ADD28C,0.762000*%
%TD*%
%TA.AperFunction,Conductor*%
%ADD29C,0.889000*%
%TD*%
%TA.AperFunction,Conductor*%
%ADD30C,1.000000*%
%TD*%
%TA.AperFunction,Conductor*%
%ADD31C,0.508000*%
%TD*%
%TA.AperFunction,Conductor*%
%ADD32C,0.500000*%
%TD*%
%TA.AperFunction,Conductor*%
%ADD33C,1.524000*%
%TD*%
G04 APERTURE END LIST*
D10*
%TO.P,J3,1,1*%
%TO.N,RFGND*%
X128083000Y-119086000D03*
%TO.P,J3,2,1__1*%
X120583000Y-119086000D03*
%TO.P,J3,3,1__2*%
X128083000Y-114086000D03*
%TO.P,J3,4,1__3*%
X120583000Y-114086000D03*
%TD*%
D11*
%TO.P,R1,1*%
%TO.N,Net-(SW1A-A)*%
X117602000Y-129498500D03*
%TO.P,R1,2*%
%TO.N,Net-(D1-A)*%
X117602000Y-135423500D03*
%TD*%
D12*
%TO.P,J1,1,In*%
%TO.N,Net-(J1-In)*%
X113411000Y-124460000D03*
%TD*%
D13*
%TO.P,C3,1*%
%TO.N,Net-(D2-A)*%
X125840000Y-125010000D03*
%TO.P,C3,2*%
%TO.N,GND*%
X125840000Y-123110000D03*
%TD*%
D14*
%TO.P,T1,1,AA*%
%TO.N,GND*%
X132640000Y-136085000D03*
%TO.P,T1,2,AB*%
%TO.N,Net-(SW1B-B)*%
X142640000Y-136085000D03*
%TO.P,T1,3,SA*%
%TO.N,Net-(SW2-C)*%
X137640000Y-118585000D03*
%TO.P,T1,4,SC*%
%TO.N,Net-(SW2-A)*%
X143690000Y-120885000D03*
%TO.P,T1,5,SB*%
%TO.N,RFGND*%
X132640000Y-120085000D03*
%TD*%
D15*
%TO.P,SW2,1,A*%
%TO.N,Net-(SW2-A)*%
X141890000Y-115060000D03*
%TO.P,SW2,2,B*%
%TO.N,Net-(J2-1__1)*%
X139390000Y-115060000D03*
%TO.P,SW2,3,C*%
%TO.N,Net-(SW2-C)*%
X136890000Y-115060000D03*
%TD*%
D16*
%TO.P,C1,1*%
%TO.N,unconnected-(C1-Pad1)*%
X163540000Y-135960000D03*
%TO.P,C1,2*%
%TO.N,RFGND*%
X156540000Y-135960000D03*
%TO.P,C1,3*%
%TO.N,unconnected-(C1-Pad3)*%
X149540000Y-135960000D03*
%TO.P,C1,4*%
%TO.N,Net-(J2-1__1)*%
X163540000Y-112960000D03*
%TO.P,C1,5*%
%TO.N,RFGND*%
X156540000Y-112960000D03*
%TO.P,C1,6*%
%TO.N,unconnected-(C1-Pad6)*%
X149540000Y-112960000D03*
%TD*%
D17*
%TO.P,SW1,1,A*%
%TO.N,Net-(SW1A-A)*%
X122468000Y-137159000D03*
%TO.P,SW1,2,B*%
%TO.N,Net-(J1-In)*%
X124968000Y-137159000D03*
%TO.P,SW1,3,C*%
%TO.N,Net-(SW1A-C)*%
X127468000Y-137159000D03*
%TO.P,SW1,4,A*%
%TO.N,Net-(SW1B-A)*%
X122468000Y-133859000D03*
%TO.P,SW1,5,B*%
%TO.N,Net-(SW1B-B)*%
X124968000Y-133859000D03*
%TO.P,SW1,6,C*%
%TO.N,Net-(SW1A-C)*%
X127468000Y-133859000D03*
%TD*%
D18*
%TO.P,R3,1*%
%TO.N,Net-(D1-K)*%
X121590000Y-123147500D03*
%TO.P,R3,2*%
%TO.N,Net-(D3-K)*%
X121590000Y-124972500D03*
%TD*%
D19*
%TO.P,D2,1,K*%
%TO.N,GND*%
X128140000Y-123260000D03*
%TO.P,D2,2,A*%
%TO.N,Net-(D2-A)*%
X128140000Y-126660000D03*
%TD*%
D20*
%TO.P,R4,1*%
%TO.N,Net-(SW1B-A)*%
X127803500Y-130556000D03*
%TO.P,R4,2*%
%TO.N,Net-(SW1A-A)*%
X121878500Y-130556000D03*
%TD*%
D21*
%TO.P,R2,1*%
%TO.N,Net-(D1-A)*%
X113538000Y-135423500D03*
%TO.P,R2,2*%
%TO.N,GND*%
X113538000Y-129498500D03*
%TD*%
D22*
%TO.P,D1,1,K*%
%TO.N,Net-(D1-K)*%
X119340000Y-123860000D03*
%TO.P,D1,2,A*%
%TO.N,Net-(D1-A)*%
X119340000Y-127160000D03*
%TD*%
D23*
%TO.P,D3,1,K*%
%TO.N,Net-(D3-K)*%
X121940000Y-126960000D03*
%TO.P,D3,2,A*%
%TO.N,Net-(D2-A)*%
X125440000Y-126960000D03*
%TD*%
D13*
%TO.P,C2,1*%
%TO.N,Net-(SW1B-A)*%
X123690000Y-125010000D03*
%TO.P,C2,2*%
%TO.N,Net-(D1-K)*%
X123690000Y-123110000D03*
%TD*%
D24*
%TO.P,JP1,1,A*%
%TO.N,RFGND*%
X113411000Y-119238000D03*
D25*
%TO.P,JP1,2,B*%
%TO.N,GND*%
X113411000Y-120538000D03*
%TD*%
D10*
%TO.P,J2,1,1*%
%TO.N,Net-(J2-1__1)*%
X169140000Y-128210000D03*
%TO.P,J2,2,1__1*%
X169140000Y-120710000D03*
%TO.P,J2,3,1__2*%
X174140000Y-128210000D03*
%TO.P,J2,4,1__3*%
X174140000Y-120710000D03*
%TD*%
D26*
%TO.N,GND*%
X116967000Y-121285000D03*
X116967000Y-127635000D03*
X129667000Y-122555000D03*
%TO.N,Net-(J1-In)*%
X116990000Y-124460000D03*
%TO.N,Net-(J2-1__1)*%
X140843000Y-118010000D03*
D27*
%TO.N,Net-(D1-A)*%
X117602000Y-133985000D03*
X118491000Y-128016000D03*
%TD*%
D28*
%TO.N,GND*%
X113538000Y-128270000D02*
X113538000Y-129498500D01*
D29*
X132640000Y-124639000D02*
X130556000Y-122555000D01*
X128962000Y-123260000D02*
X126528000Y-123260000D01*
X130556000Y-122555000D02*
X129667000Y-122555000D01*
X129667000Y-122555000D02*
X128962000Y-123260000D01*
X116967000Y-121285000D02*
X114158000Y-121285000D01*
D28*
X114173000Y-127635000D02*
X113538000Y-128270000D01*
D29*
X126528000Y-123260000D02*
X126378000Y-123110000D01*
X132640000Y-136085000D02*
X132640000Y-124639000D01*
X114158000Y-121285000D02*
X113411000Y-120538000D01*
X126378000Y-123110000D02*
X125840000Y-123110000D01*
D28*
X116967000Y-127635000D02*
X114173000Y-127635000D01*
%TO.N,Net-(J1-In)*%
X116990000Y-124460000D02*
X113411000Y-124460000D01*
D30*
%TO.N,Net-(J2-1__1)*%
X166740000Y-112960000D02*
X169140000Y-115360000D01*
X163540000Y-112960000D02*
X166740000Y-112960000D01*
X174140000Y-128210000D02*
X169140000Y-128210000D01*
X139390000Y-116530000D02*
X139390000Y-115060000D01*
X174140000Y-120710000D02*
X174140000Y-128210000D01*
X140843000Y-118010000D02*
X140843000Y-117983000D01*
X169140000Y-120710000D02*
X174140000Y-120710000D01*
X169140000Y-115360000D02*
X169140000Y-120710000D01*
X140843000Y-117983000D02*
X139390000Y-116530000D01*
D31*
%TO.N,Net-(SW1B-A)*%
X122468000Y-133859000D02*
X122468000Y-133691000D01*
X127254000Y-128651000D02*
X124333000Y-128651000D01*
X124333000Y-128651000D02*
X123690000Y-128008000D01*
X127803500Y-130556000D02*
X127803500Y-129200500D01*
X127803500Y-129200500D02*
X127254000Y-128651000D01*
X127127000Y-132334000D02*
X127803500Y-131657500D01*
X123825000Y-132334000D02*
X127127000Y-132334000D01*
X123690000Y-128008000D02*
X123690000Y-125010000D01*
X127803500Y-131657500D02*
X127803500Y-130556000D01*
X122468000Y-133691000D02*
X123825000Y-132334000D01*
D32*
%TO.N,Net-(D1-K)*%
X120052500Y-123147500D02*
X119340000Y-123860000D01*
X121590000Y-123147500D02*
X120052500Y-123147500D01*
X123652500Y-123147500D02*
X123690000Y-123110000D01*
X121590000Y-123147500D02*
X123652500Y-123147500D01*
%TO.N,Net-(D2-A)*%
X125740000Y-126660000D02*
X125440000Y-126960000D01*
X125440000Y-125410000D02*
X125840000Y-125010000D01*
X125440000Y-126960000D02*
X125440000Y-125410000D01*
X128140000Y-126660000D02*
X125740000Y-126660000D01*
D31*
%TO.N,Net-(D1-A)*%
X117602000Y-133985000D02*
X117602000Y-135423500D01*
D28*
X113538000Y-135423500D02*
X117602000Y-135423500D01*
D31*
X118491000Y-128016000D02*
X119340000Y-127167000D01*
X119340000Y-127167000D02*
X119340000Y-127160000D01*
D28*
%TO.N,Net-(SW1A-A)*%
X120523000Y-132842000D02*
X120523000Y-136398000D01*
X121284000Y-137159000D02*
X122468000Y-137159000D01*
X121878500Y-130556000D02*
X121878500Y-131486500D01*
X120523000Y-136398000D02*
X121284000Y-137159000D01*
X121878500Y-130556000D02*
X120733000Y-130556000D01*
X120733000Y-130556000D02*
X119675500Y-129498500D01*
X119675500Y-129498500D02*
X117602000Y-129498500D01*
X121878500Y-131486500D02*
X120523000Y-132842000D01*
D30*
%TO.N,Net-(SW1A-C)*%
X127468000Y-133859000D02*
X127468000Y-137159000D01*
%TO.N,Net-(SW2-A)*%
X143690000Y-118290000D02*
X141890000Y-116490000D01*
X143690000Y-120885000D02*
X143690000Y-118290000D01*
X141890000Y-116490000D02*
X141890000Y-115060000D01*
%TO.N,Net-(SW2-C)*%
X136890000Y-117835000D02*
X137640000Y-118585000D01*
X136890000Y-115060000D02*
X136890000Y-117835000D01*
D32*
%TO.N,Net-(D3-K)*%
X121940000Y-126960000D02*
X121940000Y-125322500D01*
X121940000Y-125322500D02*
X121590000Y-124972500D01*
D33*
%TO.N,RFGND*%
X128083000Y-119086000D02*
X130008000Y-119086000D01*
X128009000Y-114160000D02*
X128083000Y-114086000D01*
X128083000Y-114086000D02*
X128083000Y-119086000D01*
D29*
X120509000Y-119160000D02*
X116747000Y-119160000D01*
X115951000Y-118364000D02*
X114285000Y-118364000D01*
D33*
X156340000Y-112960000D02*
X156280000Y-112960000D01*
X120583000Y-114086000D02*
X120657000Y-114160000D01*
D29*
X114285000Y-118364000D02*
X113411000Y-119238000D01*
D33*
X130008000Y-119086000D02*
X131007000Y-120085000D01*
D29*
X120583000Y-119086000D02*
X120509000Y-119160000D01*
D33*
X136761000Y-124206000D02*
X132640000Y-120085000D01*
X120583000Y-119086000D02*
X120583000Y-114086000D01*
X145034000Y-124206000D02*
X136761000Y-124206000D01*
D29*
X116747000Y-119160000D02*
X115951000Y-118364000D01*
D33*
X156280000Y-112960000D02*
X145034000Y-124206000D01*
X120657000Y-114160000D02*
X128009000Y-114160000D01*
X131007000Y-120085000D02*
X132640000Y-120085000D01*
%TD*%
M02*
